<svg width="522" height="161" viewBox="0 0 522 161" fill="none" xmlns="http://www.w3.org/2000/svg">
<path d="M73.5513 0C73.5513 0 85.5883 2.59677 112.265 9.41331C137.315 15.9052 146.099 18.502 146.099 18.502C146.099 18.502 147.4 44.1452 136.014 90.8871C126.905 128.54 92.7455 149.315 73.5513 161C54.357 149.315 20.1978 128.54 11.0886 90.8871C-0.297766 43.8206 1.00354 18.1774 1.00354 18.1774C1.00354 18.1774 9.78734 15.5806 34.8375 9.08871C61.1889 2.59677 73.5513 0 73.5513 0Z" fill="#ABD037"/>
<path d="M191.319 29.2143H175.052V21.7485H216.044V29.2143H199.452V69.1397H190.993V29.2143H191.319Z" fill="white"/>
<path d="M247.6 52.584V55.1808H218.972C219.297 56.1546 219.622 57.1284 219.948 58.1021C220.273 59.0759 220.923 59.7251 221.574 60.3743C222.225 61.0235 223.526 61.6727 224.827 62.3219C226.129 62.9711 227.755 63.2957 229.382 63.2957C231.334 63.2957 232.635 62.9711 234.262 62.3219C235.563 61.6727 236.539 61.0235 237.19 60.3743L237.84 59.4005H246.624C246.299 60.0497 245.974 60.6989 245.648 61.3481C244.672 62.9711 243.371 64.2695 242.07 65.5679C240.118 67.1909 237.515 68.4892 234.913 69.1384C233.286 69.463 231.334 69.7876 229.382 69.7876C223.851 69.7876 219.622 68.1646 216.044 65.2433C212.465 61.9973 210.838 58.1021 210.838 52.584C210.838 47.3905 212.465 43.1707 216.044 39.9247C219.622 36.6788 223.851 35.3804 229.382 35.3804C234.913 35.3804 239.142 37.0034 242.72 39.9247C245.974 43.1707 247.6 47.0659 247.6 52.584ZM233.611 42.5215C232.31 41.8723 230.683 41.8723 229.057 41.8723C227.43 41.8723 225.803 42.1969 224.502 42.5215C223.201 43.1707 222.225 43.4953 221.249 44.4691C219.948 46.0921 218.972 47.3905 218.646 48.6888V49.338H239.142C239.142 48.6888 238.816 48.0396 238.166 46.7413C237.84 45.7675 237.19 45.1183 236.539 44.4691C236.214 43.8199 235.238 43.1707 233.611 42.5215Z" fill="white"/>
<path d="M282.735 46.742H274.927C274.927 45.119 274.276 43.8206 273.301 42.8468C271.999 41.873 270.047 41.5484 266.794 41.5484C261.589 41.5484 258.986 42.8468 258.986 45.4436C258.986 46.4174 259.637 47.3912 260.938 47.7158C262.239 48.365 263.541 48.6895 265.493 48.6895C267.445 48.6895 269.397 49.0141 271.674 49.3387C273.951 49.6633 275.903 49.9879 277.53 50.6371C279.482 51.2863 280.783 52.2601 282.084 53.5585C283.386 55.1815 284.036 56.8045 284.036 59.4012C284.036 61.998 283.386 63.9456 281.759 65.5686C280.132 67.1916 278.18 68.49 275.903 69.1391C273.626 69.7883 270.698 70.1129 267.445 70.1129C262.565 70.1129 258.336 69.1391 255.408 67.5162C252.48 65.5686 250.853 62.6472 250.853 58.7521V57.7783H258.661V58.4275C258.661 61.998 261.589 63.621 267.445 63.621C273.301 63.621 276.554 62.3226 276.554 59.4012C276.554 58.1029 275.578 57.1291 273.951 56.4799C272.325 55.8307 270.047 55.5061 267.77 55.5061C265.167 55.5061 262.89 55.1815 260.613 54.8569C258.01 54.5323 256.058 53.5585 254.432 52.2601C252.805 50.9617 251.829 48.6895 251.829 46.0928C251.829 42.8468 253.13 40.25 256.058 38.627C258.986 37.0041 262.565 36.0303 267.445 36.0303C272.325 36.0303 276.228 37.0041 278.831 38.9516C281.434 39.9254 282.735 42.8468 282.735 46.742Z" fill="white"/>
<path d="M289.242 56.8039V42.5216H283.711V37.6527L291.844 28.564H296.724V36.0297H308.111V42.5216H296.724V55.8301C296.724 60.6991 299.002 62.9712 303.881 62.9712C304.857 62.9712 305.833 62.9712 306.809 62.6466C307.785 62.322 308.436 62.322 308.761 61.9974L309.412 61.6728V68.814C307.785 69.7878 305.508 70.1124 302.905 70.1124C293.796 69.7878 289.242 65.568 289.242 56.8039Z" fill="white"/>
<path d="M343.246 69.1397H325.028V21.7485H343.246C350.729 21.7485 356.585 24.0207 360.814 28.2405C365.043 32.4602 367.32 38.303 367.32 45.4441C367.32 52.9098 365.043 58.428 360.814 62.6477C356.585 66.8675 350.729 69.1397 343.246 69.1397ZM333.487 61.6739H343.246C348.126 61.6739 351.705 60.051 354.307 57.1296C356.91 54.2082 358.211 50.3131 358.211 45.1195C358.211 40.2506 356.91 36.3554 354.307 33.434C351.705 30.5127 347.801 28.8897 343.246 28.8897H333.487V61.6739Z" fill="white"/>
<path d="M392.371 35.3804L395.949 35.705V44.1445C394.648 43.4953 392.696 43.1707 390.744 43.4953C387.491 43.4953 384.888 44.4691 382.936 46.4167C380.984 48.3642 380.008 50.961 380.008 54.207V69.1384H372.526V36.0296H380.008V42.5215H380.334C380.659 41.8723 381.31 40.8985 381.96 39.9247C382.611 38.9509 383.262 38.3017 384.238 37.6526C385.214 37.0034 386.19 36.3542 387.816 36.0296C389.118 35.3804 390.744 35.3804 392.371 35.3804Z" fill="white"/>
<path d="M399.528 27.9152C398.877 27.266 398.227 26.2922 398.227 24.9938C398.227 23.6954 398.552 22.7216 399.528 22.0724C400.504 21.4232 401.48 21.0986 402.781 21.0986C404.082 21.0986 405.058 21.4232 406.034 22.0724C406.685 22.7216 407.336 23.6954 407.336 24.9938C407.336 26.2922 407.01 27.266 406.034 27.9152C405.384 28.5644 404.082 28.889 402.781 28.889C401.48 28.889 400.504 28.5644 399.528 27.9152ZM399.203 36.0301H406.685V69.139H399.203V36.0301Z" fill="white"/>
<path d="M437.265 36.0303H445.073L432.06 69.1391H420.999L407.986 36.0303H415.794L426.204 63.2964H426.53L437.265 36.0303Z" fill="white"/>
<path d="M482.486 52.584L482.161 55.1808H453.532C453.857 56.1546 454.183 57.1284 454.508 58.1021C454.833 59.0759 455.484 59.7251 456.135 60.3743C456.785 61.0235 458.087 61.6727 459.388 62.3219C460.689 62.9711 462.316 63.2957 463.943 63.2957C465.894 63.2957 467.196 62.9711 468.822 62.3219C470.124 61.6727 471.1 61.0235 471.75 60.3743L472.401 59.4005H481.185C480.859 60.0497 480.534 60.6989 480.209 61.3481C479.233 62.9711 477.932 64.2695 476.63 65.5679C474.678 67.1909 472.076 68.4892 469.473 69.1384C467.846 69.463 465.894 69.7876 463.943 69.7876C458.412 69.7876 454.183 68.1646 450.604 65.2433C447.026 61.9973 445.399 58.1021 445.399 52.584C445.399 47.3905 447.026 43.1707 450.604 39.9247C454.183 36.6788 458.412 35.3804 463.943 35.3804C469.473 35.3804 473.702 37.0034 477.281 39.9247C480.859 43.1707 482.486 47.0659 482.486 52.584ZM468.497 42.5215C467.196 41.8723 465.569 41.8723 463.943 41.8723C462.316 41.8723 460.689 42.1969 459.388 42.5215C458.087 43.1707 457.111 43.4953 456.135 44.4691C454.833 46.0921 453.857 47.3905 453.532 48.6888V49.338H474.028C474.028 48.6888 473.702 48.0396 473.052 46.7413C472.726 45.7675 472.076 45.1183 471.425 44.4691C471.1 43.8199 470.124 43.1707 468.497 42.5215Z" fill="white"/>
<path d="M521.85 69.1384H514.368V52.2594C514.368 48.6888 513.392 46.4167 511.765 44.4691C510.139 42.8461 507.536 41.8723 504.608 41.8723C501.355 41.8723 499.077 42.8461 497.451 44.7937C495.824 46.7413 494.848 49.0134 494.848 52.2594V69.1384H487.366V36.0296H494.848V41.5477H495.174C495.499 40.8985 495.824 40.2493 496.8 39.6001C497.451 38.9509 498.101 38.3017 499.077 37.6526C500.053 37.0034 501.355 36.6788 502.656 36.0296C504.283 35.705 505.584 35.3804 507.211 35.3804C511.44 35.3804 515.018 36.6788 517.621 39.2755C520.224 41.8723 521.525 45.4429 521.525 50.6364V69.1384H521.85Z" fill="white"/>
<path d="M184.813 133.409C180.583 128.865 178.631 123.022 178.631 115.881C178.631 108.74 180.583 102.897 184.813 98.3527C189.042 93.8083 194.572 91.5361 201.73 91.5361C205.633 91.5361 209.212 92.1853 212.14 93.8083C215.393 95.4313 217.67 97.0543 219.297 99.3265C220.924 101.274 222.225 103.546 222.876 105.494C223.852 107.441 224.177 109.389 224.177 111.012H219.622C219.622 109.714 218.972 107.766 217.345 105.169C216.369 103.546 215.393 102.248 214.092 100.949C212.791 99.6511 211.164 98.6773 208.887 97.7035C206.609 96.7297 204.332 96.4051 201.404 96.4051C195.548 96.4051 190.994 98.3527 187.74 102.248C184.487 106.143 182.861 111.012 182.861 116.855C182.861 122.697 184.487 127.566 187.74 131.462C190.994 135.357 195.548 137.304 201.404 137.304C204.007 137.304 206.609 136.98 208.887 136.006C211.164 135.032 212.791 134.058 214.092 132.76C215.393 131.462 216.369 130.163 217.345 128.54C218.646 125.943 219.622 123.996 219.622 122.697H224.177C224.177 124.32 223.852 125.943 222.876 128.216C221.9 130.163 220.924 132.435 219.297 134.383C217.67 136.655 215.393 138.278 212.14 139.901C209.212 141.524 205.633 142.173 201.73 142.173C194.572 140.226 189.042 137.953 184.813 133.409Z" fill="white"/>
<path d="M233.611 135.357C230.358 132.111 228.731 127.891 228.731 123.022C228.731 117.829 230.358 113.934 233.611 110.688C236.865 107.442 241.094 105.819 246.299 105.819C251.504 105.819 255.734 107.442 258.987 110.688C262.24 113.934 263.867 118.154 263.867 123.022C263.867 128.216 262.24 132.436 258.987 135.357C255.734 138.603 251.504 140.226 246.299 140.226C241.094 140.226 236.865 138.603 233.611 135.357ZM246.299 136.331C250.203 136.331 253.456 135.033 255.734 132.436C258.011 129.839 259.312 126.918 259.312 123.022C259.312 119.127 258.011 116.206 255.734 113.609C253.131 111.012 250.203 109.714 246.299 109.714C242.395 109.714 239.142 111.012 236.865 113.609C234.262 116.206 233.286 119.452 233.286 123.022C233.286 126.593 234.587 129.839 236.865 132.436C239.142 135.033 242.395 136.331 246.299 136.331Z" fill="white"/>
<path d="M301.279 139.577H297.05V121.724C297.05 117.504 296.074 114.583 293.797 112.635C291.519 110.688 288.917 109.714 285.338 109.714C281.434 109.714 278.832 110.688 276.88 112.96C274.928 115.232 273.952 118.154 273.952 122.049V139.577H269.723V106.468H273.952V111.662H274.277C274.603 111.337 274.928 110.363 275.904 109.714C276.555 109.065 277.205 108.416 278.181 107.766C279.157 107.117 280.458 106.793 281.76 106.468C283.386 106.143 285.013 105.819 286.64 105.819C290.869 105.819 294.447 107.117 297.05 109.714C299.978 112.311 301.279 116.206 301.279 121.075V139.577Z" fill="white"/>
<path d="M314.292 104.845V106.468H325.028V110.363H314.292V139.576H310.063V110.363H304.207V106.468H310.063V104.52C310.063 100.3 311.039 97.0543 313.316 94.7821C315.268 92.5099 318.196 91.5361 321.45 91.5361C322.751 91.5361 323.727 91.5361 325.028 91.8607C326.004 92.1853 326.98 92.1853 327.631 92.5099L328.281 92.8345V97.0543C326.655 96.0805 324.703 95.4313 321.775 95.4313C319.172 95.4313 317.22 96.0805 315.919 97.7035C314.943 99.3265 314.292 101.599 314.292 104.845Z" fill="white"/>
<path d="M373.176 139.902H343.896V135.357C343.896 133.41 344.547 131.787 345.523 130.164C346.499 128.541 348.126 127.567 349.752 126.593C351.379 125.944 353.006 124.97 355.283 123.997C357.235 123.023 359.187 122.374 360.813 121.724C362.44 121.075 364.067 120.101 365.043 119.128C366.019 118.154 366.669 116.855 366.669 115.232C366.669 111.337 364.067 109.714 358.861 109.714C353.656 109.714 351.054 111.987 351.054 116.206V116.855H344.872V115.557C344.872 111.662 346.174 108.741 348.451 106.793C351.054 104.845 354.307 103.872 358.861 103.872C363.416 103.872 366.669 104.845 369.272 106.793C371.875 108.741 372.851 111.337 372.851 114.908C372.851 116.855 372.2 118.803 371.224 120.426C370.248 122.049 368.621 123.347 366.995 124.321C365.368 125.295 363.416 126.269 361.464 127.243C359.512 128.216 357.886 128.866 355.934 129.515C354.307 130.164 353.006 130.813 351.704 131.787C350.728 132.761 350.078 133.734 350.078 134.708H372.525V139.902H373.176Z" fill="#ABD037"/>
<path d="M380.658 135.357C377.73 132.111 376.429 127.567 376.429 122.373C376.429 116.855 377.73 112.635 380.658 109.389C383.586 106.143 387.49 104.196 392.696 104.196C397.901 104.196 401.805 105.819 404.733 109.389C407.661 112.635 408.962 117.18 408.962 122.373C408.962 127.891 407.661 132.111 404.733 135.357C401.805 138.603 397.901 140.551 392.696 140.551C387.49 140.226 383.586 138.603 380.658 135.357ZM399.853 131.137C401.479 128.865 402.455 125.944 402.455 122.049C402.455 118.478 401.479 115.232 399.853 112.96C398.226 110.688 395.623 109.389 392.696 109.389C389.442 109.389 387.165 110.688 385.538 112.96C383.912 115.232 382.936 118.153 382.936 122.049C382.936 125.619 383.912 128.865 385.538 131.137C387.165 133.41 389.768 134.708 392.696 134.708C395.949 134.708 398.226 133.41 399.853 131.137Z" fill="#ABD037"/>
<path d="M441.494 139.901H412.215V135.357C412.215 133.409 412.866 131.786 413.842 130.163C414.818 128.54 416.444 127.567 418.071 126.593C419.698 125.944 421.324 124.97 423.601 123.996C425.553 123.022 427.505 122.373 429.132 121.724C430.759 121.075 432.385 120.101 433.361 119.127C434.337 118.153 434.988 116.855 434.988 115.232C434.988 111.337 432.385 109.714 427.18 109.714C421.975 109.714 419.372 111.986 419.372 116.206V116.855H413.191V115.557C413.191 111.661 414.492 108.74 416.77 106.792C419.372 104.845 422.626 103.871 427.18 103.871C431.735 103.871 434.988 104.845 437.59 106.792C440.193 108.74 441.169 111.337 441.169 114.907C441.169 116.855 440.518 118.803 439.542 120.426C438.566 122.049 436.94 123.347 435.313 124.321C433.687 125.294 431.735 126.268 429.783 127.242C427.831 128.216 426.204 128.865 424.252 129.514C422.626 130.163 421.324 130.813 420.023 131.786C419.047 132.76 418.396 133.734 418.396 134.708H440.844V139.901H441.494Z" fill="#ABD037"/>
<path d="M450.604 111.986L443.447 117.829V111.012L451.58 104.196H457.11V139.577H450.929V111.986H450.604Z" fill="#ABD037"/>
<path d="M32.5594 58.1032H20.8477V51.2866H52.079V58.1032H40.3672V86.0185H32.5594V58.1032Z" fill="white"/>
<path d="M69.6465 85.6933H55.6575V50.9614H69.6465C75.177 50.9614 79.7316 52.5844 82.6595 55.5058C85.9128 58.4272 87.2141 62.9715 87.2141 68.1651C87.2141 73.6832 85.5875 77.903 82.6595 80.8243C79.7316 84.3949 75.5024 85.6933 69.6465 85.6933ZM63.4653 78.8767H69.6465C72.8998 78.8767 75.177 77.903 76.8037 75.9554C78.4303 74.0078 79.4063 71.411 79.4063 68.1651C79.4063 64.9191 78.4303 62.3223 76.8037 60.6993C75.177 58.7518 72.5744 57.778 69.6465 57.778H63.4653V78.8767Z" fill="white"/>
<path d="M95.3472 81.4734C92.0939 78.2274 90.4673 74.0077 90.4673 68.4895C90.4673 62.9714 92.0939 58.7516 95.3472 55.5057C98.6004 52.2597 102.83 50.6367 108.36 50.6367C113.565 50.6367 117.795 51.9351 121.048 54.8565C124.301 57.4532 125.928 61.0238 125.928 64.919H117.795C117.795 64.5944 117.795 64.5944 117.795 64.2698C117.795 63.9452 117.469 63.296 117.144 62.6468C116.819 61.673 116.168 61.0238 115.517 60.3746C114.867 59.7254 113.891 59.0762 112.915 58.7516C111.613 58.1024 110.312 58.1024 108.686 58.1024C105.758 58.1024 103.155 59.0762 101.528 61.0238C99.9017 62.9714 98.9258 65.5682 98.9258 68.8141C98.9258 72.0601 99.9017 74.6569 101.528 76.6045C103.155 78.552 105.758 79.5258 108.686 79.5258C110.312 79.5258 111.613 79.2012 112.915 78.8766C114.216 78.552 115.192 77.9028 115.843 76.9291C117.144 75.3061 117.795 74.0077 118.12 73.0339V72.3847H126.253C126.253 76.6045 124.627 79.8504 121.373 82.4472C118.12 85.044 113.891 86.667 108.686 86.667C102.83 86.3424 98.6004 84.7194 95.3472 81.4734Z" fill="white"/>
</svg>
