<?xml version="1.0" encoding="UTF-8"?>
<!DOCTYPE svg PUBLIC "-//W3C//DTD SVG 1.1//EN" "http://www.w3.org/Graphics/SVG/1.1/DTD/svg11.dtd">
<svg xmlns="http://www.w3.org/2000/svg" xmlns:xlink="http://www.w3.org/1999/xlink" version="1.1" width="950px" height="956px" viewBox="-0.5 -0.5 950 956"><defs/><g><path d="M 270.76 159 L 261.83 159 L 261.83 144.23 L 257.37 144.23 L 257.37 159 L 248.43 159 L 248.43 144.23 L 243.97 144.26 L 243.97 159 L 235.03 158.97 L 235.03 144.26 L 230.57 144.23 L 230.57 158.97 L 221.63 159 L 221.63 144.23 L 217.17 144.23 L 217.17 159 L 208.24 159 L 208.24 144.26 L 200.49 144.23 C 189.98 144.23 180.31 135.48 180.31 124.2 L 180.31 110.74 L 160 110.74 L 160 101.81 L 180.31 101.81 L 180.31 97.35 L 160 97.35 L 160 88.45 L 180.31 88.45 L 180.31 83.95 L 160 83.95 L 160 75.02 L 180.31 75.02 L 180.31 70.55 L 160 70.55 L 160 61.62 L 180.31 61.62 L 180.31 57.16 L 160 57.16 L 160 48.23 L 180.31 48.23 L 180.31 40.28 C 180.31 30.45 188.67 20.33 200.55 20.33 L 208.24 20.33 L 208.24 0 L 217.17 0.03 L 217.17 20.33 L 221.63 20.33 L 221.63 0 L 230.57 0.03 L 230.57 20.33 L 235.03 20.33 L 235.03 0.03 L 243.97 0 L 243.97 20.33 L 248.43 20.33 L 248.43 0 L 257.37 0.03 L 257.37 20.33 L 261.83 20.33 L 261.83 0 L 270.76 0.03 L 270.76 20.33 L 278.59 20.33 C 288.72 20.33 298.66 28.76 298.66 40.67 L 298.66 48.23 L 319 48.23 L 319 57.16 L 298.66 57.16 L 298.66 61.62 L 319 61.62 L 319 70.55 L 298.66 70.55 L 298.66 75.02 L 319 75.05 L 319 83.95 L 298.66 83.95 L 298.66 88.45 L 319 88.45 L 319 97.35 L 298.66 97.35 L 298.66 101.81 L 319 101.81 L 319 110.74 L 298.66 110.74 L 298.66 124.17 C 298.66 134.35 290.09 144.26 278.39 144.26 L 270.76 144.23 Z" fill="#5294cf" stroke="none" pointer-events="all"/><path d="M 237.92 75.02 C 235.75 74.39 233.54 73.62 232.5 72.61 C 231.34 71.6 230.84 69.54 232.41 67.43 C 233.96 65.67 236.46 65.43 237.92 65.4 Z M 241.49 99.37 L 241.49 88.62 C 243.28 89.19 245.1 89.82 246.59 90.77 C 248.05 91.81 249.09 93.12 248.46 95.56 C 247.66 98 244.83 99.1 241.49 99.37 Z M 237.92 116.55 L 241.49 116.55 L 241.49 109.85 C 246.05 109.67 250.34 108.81 253.76 107.05 C 258.41 104.67 260.64 101.43 261.71 97.94 C 262.78 94.58 263.11 89.07 260.49 85.17 C 256.65 79.01 246.85 76.9 241.49 75.67 L 241.49 65.64 C 244.12 66.39 247.06 67.96 246.85 72.1 L 260.7 72.1 C 260.76 66.18 258.17 61.5 253.73 58.53 C 249.68 55.88 245.48 55.04 241.49 54.69 L 241.49 47.54 L 237.92 47.54 L 237.92 54.27 C 233.54 54.51 229.23 55.37 225.12 57.72 C 220.27 60.64 217.85 64.81 217.62 70.29 C 217.41 76.57 220.53 80.35 224.67 82.76 C 228.81 85.11 233.4 86.27 237.92 87.52 L 237.92 99.13 C 232.56 98.66 230.09 95.83 229.88 91.1 L 216.04 91.1 C 216.1 97.32 218.51 102.29 222.97 105.53 C 226.82 108.15 231.88 109.67 237.92 109.85 Z M 192.6 121.49 L 192.6 115.66 L 198.17 115.66 L 198.17 62.75 L 192.6 62.75 L 192.6 57.16 L 239.5 30.37 L 286.4 57.16 L 286.4 62.75 L 280.8 62.75 L 280.8 115.66 L 286.4 115.66 L 286.4 121.49 Z" fill="#ffffff" stroke="none" pointer-events="all"/><path d="M 208.24 144.26 L 200.49 144.23 C 189.98 144.23 180.31 135.45 180.31 124.2 L 180.31 119.08 C 180.31 127.74 187.96 138.67 200.73 138.67 L 208.24 138.67 Z M 217.17 144.23 L 217.17 138.67 L 221.63 138.7 L 221.63 144.23 Z M 230.57 144.23 L 230.57 138.67 L 235.03 138.67 L 235.03 144.26 Z M 243.97 144.26 L 243.97 138.67 L 248.43 138.67 L 248.43 144.23 Z M 257.37 144.23 L 257.37 138.67 L 261.83 138.67 L 261.83 144.23 Z M 270.76 144.23 L 270.76 138.67 L 278.8 138.67 C 289.25 138.67 298.66 129.53 298.66 118.9 L 298.66 124.17 C 298.66 134.38 290.09 144.26 278.39 144.26 Z" fill-opacity="0.3" fill="#000000" stroke="none" pointer-events="all"/><path d="M 429.76 159 L 420.83 159 L 420.83 144.23 L 416.37 144.23 L 416.37 159 L 407.43 159 L 407.43 144.23 L 402.97 144.26 L 402.97 159 L 394.03 158.97 L 394.03 144.26 L 389.57 144.23 L 389.57 158.97 L 380.63 159 L 380.63 144.23 L 376.17 144.23 L 376.17 159 L 367.24 159 L 367.24 144.26 L 359.49 144.23 C 348.98 144.23 339.31 135.48 339.31 124.2 L 339.31 110.74 L 319 110.74 L 319 101.81 L 339.31 101.81 L 339.31 97.35 L 319 97.35 L 319 88.45 L 339.31 88.45 L 339.31 83.95 L 319 83.95 L 319 75.02 L 339.31 75.02 L 339.31 70.55 L 319 70.55 L 319 61.62 L 339.31 61.62 L 339.31 57.16 L 319 57.16 L 319 48.23 L 339.31 48.23 L 339.31 40.28 C 339.31 30.45 347.67 20.33 359.55 20.33 L 367.24 20.33 L 367.24 0 L 376.17 0.03 L 376.17 20.33 L 380.63 20.33 L 380.63 0 L 389.57 0.03 L 389.57 20.33 L 394.03 20.33 L 394.03 0.03 L 402.97 0 L 402.97 20.33 L 407.43 20.33 L 407.43 0 L 416.37 0.03 L 416.37 20.33 L 420.83 20.33 L 420.83 0 L 429.76 0.03 L 429.76 20.33 L 437.59 20.33 C 447.72 20.33 457.66 28.76 457.66 40.67 L 457.66 48.23 L 478 48.23 L 478 57.16 L 457.66 57.16 L 457.66 61.62 L 478 61.62 L 478 70.55 L 457.66 70.55 L 457.66 75.02 L 478 75.05 L 478 83.95 L 457.66 83.95 L 457.66 88.45 L 478 88.45 L 478 97.35 L 457.66 97.35 L 457.66 101.81 L 478 101.81 L 478 110.74 L 457.66 110.74 L 457.66 124.17 C 457.66 134.35 449.09 144.26 437.39 144.26 L 429.76 144.23 Z" fill="#5294cf" stroke="none" pointer-events="all"/><path d="M 396.92 75.02 C 394.75 74.39 392.54 73.62 391.5 72.61 C 390.34 71.6 389.84 69.54 391.41 67.43 C 392.96 65.67 395.46 65.43 396.92 65.4 Z M 400.49 99.37 L 400.49 88.62 C 402.28 89.19 404.1 89.82 405.59 90.77 C 407.05 91.81 408.09 93.12 407.46 95.56 C 406.66 98 403.83 99.1 400.49 99.37 Z M 396.92 116.55 L 400.49 116.55 L 400.49 109.85 C 405.05 109.67 409.34 108.81 412.76 107.05 C 417.41 104.67 419.64 101.43 420.71 97.94 C 421.78 94.58 422.11 89.07 419.49 85.17 C 415.65 79.01 405.85 76.9 400.49 75.67 L 400.49 65.64 C 403.12 66.39 406.06 67.96 405.85 72.1 L 419.7 72.1 C 419.76 66.18 417.17 61.5 412.73 58.53 C 408.68 55.88 404.48 55.04 400.49 54.69 L 400.49 47.54 L 396.92 47.54 L 396.92 54.27 C 392.54 54.51 388.23 55.37 384.12 57.72 C 379.27 60.64 376.85 64.81 376.62 70.29 C 376.41 76.57 379.53 80.35 383.67 82.76 C 387.81 85.11 392.4 86.27 396.92 87.52 L 396.92 99.13 C 391.56 98.66 389.09 95.83 388.88 91.1 L 375.04 91.1 C 375.1 97.32 377.51 102.29 381.97 105.53 C 385.82 108.15 390.88 109.67 396.92 109.85 Z M 351.6 121.49 L 351.6 115.66 L 357.17 115.66 L 357.17 62.75 L 351.6 62.75 L 351.6 57.16 L 398.5 30.37 L 445.4 57.16 L 445.4 62.75 L 439.8 62.75 L 439.8 115.66 L 445.4 115.66 L 445.4 121.49 Z" fill="#ffffff" stroke="none" pointer-events="all"/><path d="M 367.24 144.26 L 359.49 144.23 C 348.98 144.23 339.31 135.45 339.31 124.2 L 339.31 119.08 C 339.31 127.74 346.96 138.67 359.73 138.67 L 367.24 138.67 Z M 376.17 144.23 L 376.17 138.67 L 380.63 138.7 L 380.63 144.23 Z M 389.57 144.23 L 389.57 138.67 L 394.03 138.67 L 394.03 144.26 Z M 402.97 144.26 L 402.97 138.67 L 407.43 138.67 L 407.43 144.23 Z M 416.37 144.23 L 416.37 138.67 L 420.83 138.67 L 420.83 144.23 Z M 429.76 144.23 L 429.76 138.67 L 437.8 138.67 C 448.25 138.67 457.66 129.53 457.66 118.9 L 457.66 124.17 C 457.66 134.38 449.09 144.26 437.39 144.26 Z" fill-opacity="0.3" fill="#000000" stroke="none" pointer-events="all"/><path d="M 588.76 159 L 579.83 159 L 579.83 144.23 L 575.37 144.23 L 575.37 159 L 566.43 159 L 566.43 144.23 L 561.97 144.26 L 561.97 159 L 553.03 158.97 L 553.03 144.26 L 548.57 144.23 L 548.57 158.97 L 539.63 159 L 539.63 144.23 L 535.17 144.23 L 535.17 159 L 526.24 159 L 526.24 144.26 L 518.49 144.23 C 507.98 144.23 498.31 135.48 498.31 124.2 L 498.31 110.74 L 478 110.74 L 478 101.81 L 498.31 101.81 L 498.31 97.35 L 478 97.35 L 478 88.45 L 498.31 88.45 L 498.31 83.95 L 478 83.95 L 478 75.02 L 498.31 75.02 L 498.31 70.55 L 478 70.55 L 478 61.62 L 498.31 61.62 L 498.31 57.16 L 478 57.16 L 478 48.23 L 498.31 48.23 L 498.31 40.28 C 498.31 30.45 506.67 20.33 518.55 20.33 L 526.24 20.33 L 526.24 0 L 535.17 0.03 L 535.17 20.33 L 539.63 20.33 L 539.63 0 L 548.57 0.03 L 548.57 20.33 L 553.03 20.33 L 553.03 0.03 L 561.97 0 L 561.97 20.33 L 566.43 20.33 L 566.43 0 L 575.37 0.03 L 575.37 20.33 L 579.83 20.33 L 579.83 0 L 588.76 0.03 L 588.76 20.33 L 596.59 20.33 C 606.72 20.33 616.66 28.76 616.66 40.67 L 616.66 48.23 L 637 48.23 L 637 57.16 L 616.66 57.16 L 616.66 61.62 L 637 61.62 L 637 70.55 L 616.66 70.55 L 616.66 75.02 L 637 75.05 L 637 83.95 L 616.66 83.95 L 616.66 88.45 L 637 88.45 L 637 97.35 L 616.66 97.35 L 616.66 101.81 L 637 101.81 L 637 110.74 L 616.66 110.74 L 616.66 124.17 C 616.66 134.35 608.09 144.26 596.39 144.26 L 588.76 144.23 Z" fill="#5294cf" stroke="none" pointer-events="all"/><path d="M 555.92 75.02 C 553.75 74.39 551.54 73.62 550.5 72.61 C 549.34 71.6 548.84 69.54 550.41 67.43 C 551.96 65.67 554.46 65.43 555.92 65.4 Z M 559.49 99.37 L 559.49 88.62 C 561.28 89.19 563.1 89.82 564.59 90.77 C 566.05 91.81 567.09 93.12 566.46 95.56 C 565.66 98 562.83 99.1 559.49 99.37 Z M 555.92 116.55 L 559.49 116.55 L 559.49 109.85 C 564.05 109.67 568.34 108.81 571.76 107.05 C 576.41 104.67 578.64 101.43 579.71 97.94 C 580.78 94.58 581.11 89.07 578.49 85.17 C 574.65 79.01 564.85 76.9 559.49 75.67 L 559.49 65.64 C 562.12 66.39 565.06 67.96 564.85 72.1 L 578.7 72.1 C 578.76 66.18 576.17 61.5 571.73 58.53 C 567.68 55.88 563.48 55.04 559.49 54.69 L 559.49 47.54 L 555.92 47.54 L 555.92 54.27 C 551.54 54.51 547.23 55.37 543.12 57.72 C 538.27 60.64 535.85 64.81 535.62 70.29 C 535.41 76.57 538.53 80.35 542.67 82.76 C 546.81 85.11 551.4 86.27 555.92 87.52 L 555.92 99.13 C 550.56 98.66 548.09 95.83 547.88 91.1 L 534.04 91.1 C 534.1 97.32 536.51 102.29 540.97 105.53 C 544.82 108.15 549.88 109.67 555.92 109.85 Z M 510.6 121.49 L 510.6 115.66 L 516.17 115.66 L 516.17 62.75 L 510.6 62.75 L 510.6 57.16 L 557.5 30.37 L 604.4 57.16 L 604.4 62.75 L 598.8 62.75 L 598.8 115.66 L 604.4 115.66 L 604.4 121.49 Z" fill="#ffffff" stroke="none" pointer-events="all"/><path d="M 526.24 144.26 L 518.49 144.23 C 507.98 144.23 498.31 135.45 498.31 124.2 L 498.31 119.08 C 498.31 127.74 505.96 138.67 518.73 138.67 L 526.24 138.67 Z M 535.17 144.23 L 535.17 138.67 L 539.63 138.7 L 539.63 144.23 Z M 548.57 144.23 L 548.57 138.67 L 553.03 138.67 L 553.03 144.26 Z M 561.97 144.26 L 561.97 138.67 L 566.43 138.67 L 566.43 144.23 Z M 575.37 144.23 L 575.37 138.67 L 579.83 138.67 L 579.83 144.23 Z M 588.76 144.23 L 588.76 138.67 L 596.8 138.67 C 607.25 138.67 616.66 129.53 616.66 118.9 L 616.66 124.17 C 616.66 134.38 608.09 144.26 596.39 144.26 Z" fill-opacity="0.3" fill="#000000" stroke="none" pointer-events="all"/><path d="M 741.26 159 L 732.33 159 L 732.33 144.23 L 727.87 144.23 L 727.87 159 L 718.93 159 L 718.93 144.23 L 714.47 144.26 L 714.47 159 L 705.53 158.97 L 705.53 144.26 L 701.07 144.23 L 701.07 158.97 L 692.13 159 L 692.13 144.23 L 687.67 144.23 L 687.67 159 L 678.74 159 L 678.74 144.26 L 670.99 144.23 C 660.48 144.23 650.81 135.48 650.81 124.2 L 650.81 110.74 L 630.5 110.74 L 630.5 101.81 L 650.81 101.81 L 650.81 97.35 L 630.5 97.35 L 630.5 88.45 L 650.81 88.45 L 650.81 83.95 L 630.5 83.95 L 630.5 75.02 L 650.81 75.02 L 650.81 70.55 L 630.5 70.55 L 630.5 61.62 L 650.81 61.62 L 650.81 57.16 L 630.5 57.16 L 630.5 48.23 L 650.81 48.23 L 650.81 40.28 C 650.81 30.45 659.17 20.33 671.05 20.33 L 678.74 20.33 L 678.74 0 L 687.67 0.03 L 687.67 20.33 L 692.13 20.33 L 692.13 0 L 701.07 0.03 L 701.07 20.33 L 705.53 20.33 L 705.53 0.03 L 714.47 0 L 714.47 20.33 L 718.93 20.33 L 718.93 0 L 727.87 0.03 L 727.87 20.33 L 732.33 20.33 L 732.33 0 L 741.26 0.03 L 741.26 20.33 L 749.09 20.33 C 759.22 20.33 769.16 28.76 769.16 40.67 L 769.16 48.23 L 789.5 48.23 L 789.5 57.16 L 769.16 57.16 L 769.16 61.62 L 789.5 61.62 L 789.5 70.55 L 769.16 70.55 L 769.16 75.02 L 789.5 75.05 L 789.5 83.95 L 769.16 83.95 L 769.16 88.45 L 789.5 88.45 L 789.5 97.35 L 769.16 97.35 L 769.16 101.81 L 789.5 101.81 L 789.5 110.74 L 769.16 110.74 L 769.16 124.17 C 769.16 134.35 760.59 144.26 748.89 144.26 L 741.26 144.23 Z" fill="#5294cf" stroke="none" pointer-events="all"/><path d="M 708.42 75.02 C 706.25 74.39 704.04 73.62 703 72.61 C 701.84 71.6 701.34 69.54 702.91 67.43 C 704.46 65.67 706.96 65.43 708.42 65.4 Z M 711.99 99.37 L 711.99 88.62 C 713.78 89.19 715.6 89.82 717.09 90.77 C 718.55 91.81 719.59 93.12 718.96 95.56 C 718.16 98 715.33 99.1 711.99 99.37 Z M 708.42 116.55 L 711.99 116.55 L 711.99 109.85 C 716.55 109.67 720.84 108.81 724.26 107.05 C 728.91 104.67 731.14 101.43 732.21 97.94 C 733.28 94.58 733.61 89.07 730.99 85.17 C 727.15 79.01 717.35 76.9 711.99 75.67 L 711.99 65.64 C 714.62 66.39 717.56 67.96 717.35 72.1 L 731.2 72.1 C 731.26 66.18 728.67 61.5 724.23 58.53 C 720.18 55.88 715.98 55.04 711.99 54.69 L 711.99 47.54 L 708.42 47.54 L 708.42 54.27 C 704.04 54.51 699.73 55.37 695.62 57.72 C 690.77 60.64 688.35 64.81 688.12 70.29 C 687.91 76.57 691.03 80.35 695.17 82.76 C 699.31 85.11 703.9 86.27 708.42 87.52 L 708.42 99.13 C 703.06 98.66 700.59 95.83 700.38 91.1 L 686.54 91.1 C 686.6 97.32 689.01 102.29 693.47 105.53 C 697.32 108.15 702.38 109.67 708.42 109.85 Z M 663.1 121.49 L 663.1 115.66 L 668.67 115.66 L 668.67 62.75 L 663.1 62.75 L 663.1 57.16 L 710 30.37 L 756.9 57.16 L 756.9 62.75 L 751.3 62.75 L 751.3 115.66 L 756.9 115.66 L 756.9 121.49 Z" fill="#ffffff" stroke="none" pointer-events="all"/><path d="M 678.74 144.26 L 670.99 144.23 C 660.48 144.23 650.81 135.45 650.81 124.2 L 650.81 119.08 C 650.81 127.74 658.46 138.67 671.23 138.67 L 678.74 138.67 Z M 687.67 144.23 L 687.67 138.67 L 692.13 138.7 L 692.13 144.23 Z M 701.07 144.23 L 701.07 138.67 L 705.53 138.67 L 705.53 144.26 Z M 714.47 144.26 L 714.47 138.67 L 718.93 138.67 L 718.93 144.23 Z M 727.87 144.23 L 727.87 138.67 L 732.33 138.67 L 732.33 144.23 Z M 741.26 144.23 L 741.26 138.67 L 749.3 138.67 C 759.75 138.67 769.16 129.53 769.16 118.9 L 769.16 124.17 C 769.16 134.38 760.59 144.26 748.89 144.26 Z" fill-opacity="0.3" fill="#000000" stroke="none" pointer-events="all"/><path d="M 900.26 159 L 891.33 159 L 891.33 144.23 L 886.87 144.23 L 886.87 159 L 877.93 159 L 877.93 144.23 L 873.47 144.26 L 873.47 159 L 864.53 158.97 L 864.53 144.26 L 860.07 144.23 L 860.07 158.97 L 851.13 159 L 851.13 144.23 L 846.67 144.23 L 846.67 159 L 837.74 159 L 837.74 144.26 L 829.99 144.23 C 819.48 144.23 809.81 135.48 809.81 124.2 L 809.81 110.74 L 789.5 110.74 L 789.5 101.81 L 809.81 101.81 L 809.81 97.35 L 789.5 97.35 L 789.5 88.45 L 809.81 88.45 L 809.81 83.95 L 789.5 83.95 L 789.5 75.02 L 809.81 75.02 L 809.81 70.55 L 789.5 70.55 L 789.5 61.62 L 809.81 61.62 L 809.81 57.16 L 789.5 57.16 L 789.5 48.23 L 809.81 48.23 L 809.81 40.28 C 809.81 30.45 818.17 20.33 830.05 20.33 L 837.74 20.33 L 837.74 0 L 846.67 0.03 L 846.67 20.33 L 851.13 20.33 L 851.13 0 L 860.07 0.03 L 860.07 20.33 L 864.53 20.33 L 864.53 0.03 L 873.47 0 L 873.47 20.33 L 877.93 20.33 L 877.93 0 L 886.87 0.03 L 886.87 20.33 L 891.33 20.33 L 891.33 0 L 900.26 0.03 L 900.26 20.33 L 908.09 20.33 C 918.22 20.33 928.16 28.76 928.16 40.67 L 928.16 48.23 L 948.5 48.23 L 948.5 57.16 L 928.16 57.16 L 928.16 61.62 L 948.5 61.62 L 948.5 70.55 L 928.16 70.55 L 928.16 75.02 L 948.5 75.05 L 948.5 83.95 L 928.16 83.95 L 928.16 88.45 L 948.5 88.45 L 948.5 97.35 L 928.16 97.35 L 928.16 101.81 L 948.5 101.81 L 948.5 110.74 L 928.16 110.74 L 928.16 124.17 C 928.16 134.35 919.59 144.26 907.89 144.26 L 900.26 144.23 Z" fill="#5294cf" stroke="none" pointer-events="all"/><path d="M 867.42 75.02 C 865.25 74.39 863.04 73.62 862 72.61 C 860.84 71.6 860.34 69.54 861.91 67.43 C 863.46 65.67 865.96 65.43 867.42 65.4 Z M 870.99 99.37 L 870.99 88.62 C 872.78 89.19 874.6 89.82 876.09 90.77 C 877.55 91.81 878.59 93.12 877.96 95.56 C 877.16 98 874.33 99.1 870.99 99.37 Z M 867.42 116.55 L 870.99 116.55 L 870.99 109.85 C 875.55 109.67 879.84 108.81 883.26 107.05 C 887.91 104.67 890.14 101.43 891.21 97.94 C 892.28 94.58 892.61 89.07 889.99 85.17 C 886.15 79.01 876.35 76.9 870.99 75.67 L 870.99 65.64 C 873.62 66.39 876.56 67.96 876.35 72.1 L 890.2 72.1 C 890.26 66.18 887.67 61.5 883.23 58.53 C 879.18 55.88 874.98 55.04 870.99 54.69 L 870.99 47.54 L 867.42 47.54 L 867.42 54.27 C 863.04 54.51 858.73 55.37 854.62 57.72 C 849.77 60.64 847.35 64.81 847.12 70.29 C 846.91 76.57 850.03 80.35 854.17 82.76 C 858.31 85.11 862.9 86.27 867.42 87.52 L 867.42 99.13 C 862.06 98.66 859.59 95.83 859.38 91.1 L 845.54 91.1 C 845.6 97.32 848.01 102.29 852.47 105.53 C 856.32 108.15 861.38 109.67 867.42 109.85 Z M 822.1 121.49 L 822.1 115.66 L 827.67 115.66 L 827.67 62.75 L 822.1 62.75 L 822.1 57.16 L 869 30.37 L 915.9 57.16 L 915.9 62.75 L 910.3 62.75 L 910.3 115.66 L 915.9 115.66 L 915.9 121.49 Z" fill="#ffffff" stroke="none" pointer-events="all"/><path d="M 837.74 144.26 L 829.99 144.23 C 819.48 144.23 809.81 135.45 809.81 124.2 L 809.81 119.08 C 809.81 127.74 817.46 138.67 830.23 138.67 L 837.74 138.67 Z M 846.67 144.23 L 846.67 138.67 L 851.13 138.7 L 851.13 144.23 Z M 860.07 144.23 L 860.07 138.67 L 864.53 138.67 L 864.53 144.26 Z M 873.47 144.26 L 873.47 138.67 L 877.93 138.67 L 877.93 144.23 Z M 886.87 144.23 L 886.87 138.67 L 891.33 138.67 L 891.33 144.23 Z M 900.26 144.23 L 900.26 138.67 L 908.3 138.67 C 918.75 138.67 928.16 129.53 928.16 118.9 L 928.16 124.17 C 928.16 134.38 919.59 144.26 907.89 144.26 Z" fill-opacity="0.3" fill="#000000" stroke="none" pointer-events="all"/><path d="M 900.26 318 L 891.33 318 L 891.33 303.23 L 886.87 303.23 L 886.87 318 L 877.93 318 L 877.93 303.23 L 873.47 303.26 L 873.47 318 L 864.53 317.97 L 864.53 303.26 L 860.07 303.23 L 860.07 317.97 L 851.13 318 L 851.13 303.23 L 846.67 303.23 L 846.67 318 L 837.74 318 L 837.74 303.26 L 829.99 303.23 C 819.48 303.23 809.81 294.48 809.81 283.2 L 809.81 269.74 L 789.5 269.74 L 789.5 260.81 L 809.81 260.81 L 809.81 256.35 L 789.5 256.35 L 789.5 247.45 L 809.81 247.45 L 809.81 242.95 L 789.5 242.95 L 789.5 234.02 L 809.81 234.02 L 809.81 229.55 L 789.5 229.55 L 789.5 220.62 L 809.81 220.62 L 809.81 216.16 L 789.5 216.16 L 789.5 207.23 L 809.81 207.23 L 809.81 199.28 C 809.81 189.45 818.17 179.33 830.05 179.33 L 837.74 179.33 L 837.74 159 L 846.67 159.03 L 846.67 179.33 L 851.13 179.33 L 851.13 159 L 860.07 159.03 L 860.07 179.33 L 864.53 179.33 L 864.53 159.03 L 873.47 159 L 873.47 179.33 L 877.93 179.33 L 877.93 159 L 886.87 159.03 L 886.87 179.33 L 891.33 179.33 L 891.33 159 L 900.26 159.03 L 900.26 179.33 L 908.09 179.33 C 918.22 179.33 928.16 187.76 928.16 199.67 L 928.16 207.23 L 948.5 207.23 L 948.5 216.16 L 928.16 216.16 L 928.16 220.62 L 948.5 220.62 L 948.5 229.55 L 928.16 229.55 L 928.16 234.02 L 948.5 234.05 L 948.5 242.95 L 928.16 242.95 L 928.16 247.45 L 948.5 247.45 L 948.5 256.35 L 928.16 256.35 L 928.16 260.81 L 948.5 260.81 L 948.5 269.74 L 928.16 269.74 L 928.16 283.17 C 928.16 293.35 919.59 303.26 907.89 303.26 L 900.26 303.23 Z" fill="#5294cf" stroke="none" pointer-events="all"/><path d="M 867.42 234.02 C 865.25 233.39 863.04 232.62 862 231.61 C 860.84 230.6 860.34 228.54 861.91 226.43 C 863.46 224.67 865.96 224.43 867.42 224.4 Z M 870.99 258.37 L 870.99 247.62 C 872.78 248.19 874.6 248.82 876.09 249.77 C 877.55 250.81 878.59 252.12 877.96 254.56 C 877.16 257 874.33 258.1 870.99 258.37 Z M 867.42 275.55 L 870.99 275.55 L 870.99 268.85 C 875.55 268.67 879.84 267.81 883.26 266.05 C 887.91 263.67 890.14 260.43 891.21 256.94 C 892.28 253.58 892.61 248.07 889.99 244.17 C 886.15 238.01 876.35 235.9 870.99 234.67 L 870.99 224.64 C 873.62 225.39 876.56 226.96 876.35 231.1 L 890.2 231.1 C 890.26 225.18 887.67 220.5 883.23 217.53 C 879.18 214.88 874.98 214.04 870.99 213.69 L 870.99 206.54 L 867.42 206.54 L 867.42 213.27 C 863.04 213.51 858.73 214.37 854.62 216.72 C 849.77 219.64 847.35 223.81 847.12 229.29 C 846.91 235.57 850.03 239.35 854.17 241.76 C 858.31 244.11 862.9 245.27 867.42 246.52 L 867.42 258.13 C 862.06 257.66 859.59 254.83 859.38 250.1 L 845.54 250.1 C 845.6 256.32 848.01 261.29 852.47 264.53 C 856.32 267.15 861.38 268.67 867.42 268.85 Z M 822.1 280.49 L 822.1 274.66 L 827.67 274.66 L 827.67 221.75 L 822.1 221.75 L 822.1 216.16 L 869 189.37 L 915.9 216.16 L 915.9 221.75 L 910.3 221.75 L 910.3 274.66 L 915.9 274.66 L 915.9 280.49 Z" fill="#ffffff" stroke="none" pointer-events="all"/><path d="M 837.74 303.26 L 829.99 303.23 C 819.48 303.23 809.81 294.45 809.81 283.2 L 809.81 278.08 C 809.81 286.74 817.46 297.67 830.23 297.67 L 837.74 297.67 Z M 846.67 303.23 L 846.67 297.67 L 851.13 297.7 L 851.13 303.23 Z M 860.07 303.23 L 860.07 297.67 L 864.53 297.67 L 864.53 303.26 Z M 873.47 303.26 L 873.47 297.67 L 877.93 297.67 L 877.93 303.23 Z M 886.87 303.23 L 886.87 297.67 L 891.33 297.67 L 891.33 303.23 Z M 900.26 303.23 L 900.26 297.67 L 908.3 297.67 C 918.75 297.67 928.16 288.53 928.16 277.9 L 928.16 283.17 C 928.16 293.38 919.59 303.26 907.89 303.26 Z" fill-opacity="0.3" fill="#000000" stroke="none" pointer-events="all"/><path d="M 900.26 477 L 891.33 477 L 891.33 462.23 L 886.87 462.23 L 886.87 477 L 877.93 477 L 877.93 462.23 L 873.47 462.26 L 873.47 477 L 864.53 476.97 L 864.53 462.26 L 860.07 462.23 L 860.07 476.97 L 851.13 477 L 851.13 462.23 L 846.67 462.23 L 846.67 477 L 837.74 477 L 837.74 462.26 L 829.99 462.23 C 819.48 462.23 809.81 453.48 809.81 442.2 L 809.81 428.74 L 789.5 428.74 L 789.5 419.81 L 809.81 419.81 L 809.81 415.35 L 789.5 415.35 L 789.5 406.45 L 809.81 406.45 L 809.81 401.95 L 789.5 401.95 L 789.5 393.02 L 809.81 393.02 L 809.81 388.55 L 789.5 388.55 L 789.5 379.62 L 809.81 379.62 L 809.81 375.16 L 789.5 375.16 L 789.5 366.23 L 809.81 366.23 L 809.81 358.28 C 809.81 348.45 818.17 338.33 830.05 338.33 L 837.74 338.33 L 837.74 318 L 846.67 318.03 L 846.67 338.33 L 851.13 338.33 L 851.13 318 L 860.07 318.03 L 860.07 338.33 L 864.53 338.33 L 864.53 318.03 L 873.47 318 L 873.47 338.33 L 877.93 338.33 L 877.93 318 L 886.87 318.03 L 886.87 338.33 L 891.33 338.33 L 891.33 318 L 900.26 318.03 L 900.26 338.33 L 908.09 338.33 C 918.22 338.33 928.16 346.76 928.16 358.67 L 928.16 366.23 L 948.5 366.23 L 948.5 375.16 L 928.16 375.16 L 928.16 379.62 L 948.5 379.62 L 948.5 388.55 L 928.16 388.55 L 928.16 393.02 L 948.5 393.05 L 948.5 401.95 L 928.16 401.95 L 928.16 406.45 L 948.5 406.45 L 948.5 415.35 L 928.16 415.35 L 928.16 419.81 L 948.5 419.81 L 948.5 428.74 L 928.16 428.74 L 928.16 442.17 C 928.16 452.35 919.59 462.26 907.89 462.26 L 900.26 462.23 Z" fill="#5294cf" stroke="none" pointer-events="all"/><path d="M 867.42 393.02 C 865.25 392.39 863.04 391.62 862 390.61 C 860.84 389.6 860.34 387.54 861.91 385.43 C 863.46 383.67 865.96 383.43 867.42 383.4 Z M 870.99 417.37 L 870.99 406.62 C 872.78 407.19 874.6 407.82 876.09 408.77 C 877.55 409.81 878.59 411.12 877.96 413.56 C 877.16 416 874.33 417.1 870.99 417.37 Z M 867.42 434.55 L 870.99 434.55 L 870.99 427.85 C 875.55 427.67 879.84 426.81 883.26 425.05 C 887.91 422.67 890.14 419.43 891.21 415.94 C 892.28 412.58 892.61 407.07 889.99 403.17 C 886.15 397.01 876.35 394.9 870.99 393.67 L 870.99 383.64 C 873.62 384.39 876.56 385.96 876.35 390.1 L 890.2 390.1 C 890.26 384.18 887.67 379.5 883.23 376.53 C 879.18 373.88 874.98 373.04 870.99 372.69 L 870.99 365.54 L 867.42 365.54 L 867.42 372.27 C 863.04 372.51 858.73 373.37 854.62 375.72 C 849.77 378.64 847.35 382.81 847.12 388.29 C 846.91 394.57 850.03 398.35 854.17 400.76 C 858.31 403.11 862.9 404.27 867.42 405.52 L 867.42 417.13 C 862.06 416.66 859.59 413.83 859.38 409.1 L 845.54 409.1 C 845.6 415.32 848.01 420.29 852.47 423.53 C 856.32 426.15 861.38 427.67 867.42 427.85 Z M 822.1 439.49 L 822.1 433.66 L 827.67 433.66 L 827.67 380.75 L 822.1 380.75 L 822.1 375.16 L 869 348.37 L 915.9 375.16 L 915.9 380.75 L 910.3 380.75 L 910.3 433.66 L 915.9 433.66 L 915.9 439.49 Z" fill="#ffffff" stroke="none" pointer-events="all"/><path d="M 837.74 462.26 L 829.99 462.23 C 819.48 462.23 809.81 453.45 809.81 442.2 L 809.81 437.08 C 809.81 445.74 817.46 456.67 830.23 456.67 L 837.74 456.67 Z M 846.67 462.23 L 846.67 456.67 L 851.13 456.7 L 851.13 462.23 Z M 860.07 462.23 L 860.07 456.67 L 864.53 456.67 L 864.53 462.26 Z M 873.47 462.26 L 873.47 456.67 L 877.93 456.67 L 877.93 462.23 Z M 886.87 462.23 L 886.87 456.67 L 891.33 456.67 L 891.33 462.23 Z M 900.26 462.23 L 900.26 456.67 L 908.3 456.67 C 918.75 456.67 928.16 447.53 928.16 436.9 L 928.16 442.17 C 928.16 452.38 919.59 462.26 907.89 462.26 Z" fill-opacity="0.3" fill="#000000" stroke="none" pointer-events="all"/><path d="M 900.26 636 L 891.33 636 L 891.33 621.23 L 886.87 621.23 L 886.87 636 L 877.93 636 L 877.93 621.23 L 873.47 621.26 L 873.47 636 L 864.53 635.97 L 864.53 621.26 L 860.07 621.23 L 860.07 635.97 L 851.13 636 L 851.13 621.23 L 846.67 621.23 L 846.67 636 L 837.74 636 L 837.74 621.26 L 829.99 621.23 C 819.48 621.23 809.81 612.48 809.81 601.2 L 809.81 587.74 L 789.5 587.74 L 789.5 578.81 L 809.81 578.81 L 809.81 574.35 L 789.5 574.35 L 789.5 565.45 L 809.81 565.45 L 809.81 560.95 L 789.5 560.95 L 789.5 552.02 L 809.81 552.02 L 809.81 547.55 L 789.5 547.55 L 789.5 538.62 L 809.81 538.62 L 809.81 534.16 L 789.5 534.16 L 789.5 525.23 L 809.81 525.23 L 809.81 517.28 C 809.81 507.45 818.17 497.33 830.05 497.33 L 837.74 497.33 L 837.74 477 L 846.67 477.03 L 846.67 497.33 L 851.13 497.33 L 851.13 477 L 860.07 477.03 L 860.07 497.33 L 864.53 497.33 L 864.53 477.03 L 873.47 477 L 873.47 497.33 L 877.93 497.33 L 877.93 477 L 886.87 477.03 L 886.87 497.33 L 891.33 497.33 L 891.33 477 L 900.26 477.03 L 900.26 497.33 L 908.09 497.33 C 918.22 497.33 928.16 505.76 928.16 517.67 L 928.16 525.23 L 948.5 525.23 L 948.5 534.16 L 928.16 534.16 L 928.16 538.62 L 948.5 538.62 L 948.5 547.55 L 928.16 547.55 L 928.16 552.02 L 948.5 552.05 L 948.5 560.95 L 928.16 560.95 L 928.16 565.45 L 948.5 565.45 L 948.5 574.35 L 928.16 574.35 L 928.16 578.81 L 948.5 578.81 L 948.5 587.74 L 928.16 587.74 L 928.16 601.17 C 928.16 611.35 919.59 621.26 907.89 621.26 L 900.26 621.23 Z" fill="#5294cf" stroke="none" pointer-events="all"/><path d="M 867.42 552.02 C 865.25 551.39 863.04 550.62 862 549.61 C 860.84 548.6 860.34 546.54 861.91 544.43 C 863.46 542.67 865.96 542.43 867.42 542.4 Z M 870.99 576.37 L 870.99 565.62 C 872.78 566.19 874.6 566.82 876.09 567.77 C 877.55 568.81 878.59 570.12 877.96 572.56 C 877.16 575 874.33 576.1 870.99 576.37 Z M 867.42 593.55 L 870.99 593.55 L 870.99 586.85 C 875.55 586.67 879.84 585.81 883.26 584.05 C 887.91 581.67 890.14 578.43 891.21 574.94 C 892.28 571.58 892.61 566.07 889.99 562.17 C 886.15 556.01 876.35 553.9 870.99 552.67 L 870.99 542.64 C 873.62 543.39 876.56 544.96 876.35 549.1 L 890.2 549.1 C 890.26 543.18 887.67 538.5 883.23 535.53 C 879.18 532.88 874.98 532.04 870.99 531.69 L 870.99 524.54 L 867.42 524.54 L 867.42 531.27 C 863.04 531.51 858.73 532.37 854.62 534.72 C 849.77 537.64 847.35 541.81 847.12 547.29 C 846.91 553.57 850.03 557.35 854.17 559.76 C 858.31 562.11 862.9 563.27 867.42 564.52 L 867.42 576.13 C 862.06 575.66 859.59 572.83 859.38 568.1 L 845.54 568.1 C 845.6 574.32 848.01 579.29 852.47 582.53 C 856.32 585.15 861.38 586.67 867.42 586.85 Z M 822.1 598.49 L 822.1 592.66 L 827.67 592.66 L 827.67 539.75 L 822.1 539.75 L 822.1 534.16 L 869 507.37 L 915.9 534.16 L 915.9 539.75 L 910.3 539.75 L 910.3 592.66 L 915.9 592.66 L 915.9 598.49 Z" fill="#ffffff" stroke="none" pointer-events="all"/><path d="M 837.74 621.26 L 829.99 621.23 C 819.48 621.23 809.81 612.45 809.81 601.2 L 809.81 596.08 C 809.81 604.74 817.46 615.67 830.23 615.67 L 837.74 615.67 Z M 846.67 621.23 L 846.67 615.67 L 851.13 615.7 L 851.13 621.23 Z M 860.07 621.23 L 860.07 615.67 L 864.53 615.67 L 864.53 621.26 Z M 873.47 621.26 L 873.47 615.67 L 877.93 615.67 L 877.93 621.23 Z M 886.87 621.23 L 886.87 615.67 L 891.33 615.67 L 891.33 621.23 Z M 900.26 621.23 L 900.26 615.67 L 908.3 615.67 C 918.75 615.67 928.16 606.53 928.16 595.9 L 928.16 601.17 C 928.16 611.38 919.59 621.26 907.89 621.26 Z" fill-opacity="0.3" fill="#000000" stroke="none" pointer-events="all"/><path d="M 900.26 795 L 891.33 795 L 891.33 780.23 L 886.87 780.23 L 886.87 795 L 877.93 795 L 877.93 780.23 L 873.47 780.26 L 873.47 795 L 864.53 794.97 L 864.53 780.26 L 860.07 780.23 L 860.07 794.97 L 851.13 795 L 851.13 780.23 L 846.67 780.23 L 846.67 795 L 837.74 795 L 837.74 780.26 L 829.99 780.23 C 819.48 780.23 809.81 771.48 809.81 760.2 L 809.81 746.74 L 789.5 746.74 L 789.5 737.81 L 809.81 737.81 L 809.81 733.35 L 789.5 733.35 L 789.5 724.45 L 809.81 724.45 L 809.81 719.95 L 789.5 719.95 L 789.5 711.02 L 809.81 711.02 L 809.81 706.55 L 789.5 706.55 L 789.5 697.62 L 809.81 697.62 L 809.81 693.16 L 789.5 693.16 L 789.5 684.23 L 809.81 684.23 L 809.81 676.28 C 809.81 666.45 818.17 656.33 830.05 656.33 L 837.74 656.33 L 837.74 636 L 846.67 636.03 L 846.67 656.33 L 851.13 656.33 L 851.13 636 L 860.07 636.03 L 860.07 656.33 L 864.53 656.33 L 864.53 636.03 L 873.47 636 L 873.47 656.33 L 877.93 656.33 L 877.93 636 L 886.87 636.03 L 886.87 656.33 L 891.33 656.33 L 891.33 636 L 900.26 636.03 L 900.26 656.33 L 908.09 656.33 C 918.22 656.33 928.16 664.76 928.16 676.67 L 928.16 684.23 L 948.5 684.23 L 948.5 693.16 L 928.16 693.16 L 928.16 697.62 L 948.5 697.62 L 948.5 706.55 L 928.16 706.55 L 928.16 711.02 L 948.5 711.05 L 948.5 719.95 L 928.16 719.95 L 928.16 724.45 L 948.5 724.45 L 948.5 733.35 L 928.16 733.35 L 928.16 737.81 L 948.5 737.81 L 948.5 746.74 L 928.16 746.74 L 928.16 760.17 C 928.16 770.35 919.59 780.26 907.89 780.26 L 900.26 780.23 Z" fill="#5294cf" stroke="none" pointer-events="all"/><path d="M 867.42 711.02 C 865.25 710.39 863.04 709.62 862 708.61 C 860.84 707.6 860.34 705.54 861.91 703.43 C 863.46 701.67 865.96 701.43 867.42 701.4 Z M 870.99 735.37 L 870.99 724.62 C 872.78 725.19 874.6 725.82 876.09 726.77 C 877.55 727.81 878.59 729.12 877.96 731.56 C 877.16 734 874.33 735.1 870.99 735.37 Z M 867.42 752.55 L 870.99 752.55 L 870.99 745.85 C 875.55 745.67 879.84 744.81 883.26 743.05 C 887.91 740.67 890.14 737.43 891.21 733.94 C 892.28 730.58 892.61 725.07 889.99 721.17 C 886.15 715.01 876.35 712.9 870.99 711.67 L 870.99 701.64 C 873.62 702.39 876.56 703.96 876.35 708.1 L 890.2 708.1 C 890.26 702.18 887.67 697.5 883.23 694.53 C 879.18 691.88 874.98 691.04 870.99 690.69 L 870.99 683.54 L 867.42 683.54 L 867.42 690.27 C 863.04 690.51 858.73 691.37 854.62 693.72 C 849.77 696.64 847.35 700.81 847.12 706.29 C 846.91 712.57 850.03 716.35 854.17 718.76 C 858.31 721.11 862.9 722.27 867.42 723.52 L 867.42 735.13 C 862.06 734.66 859.59 731.83 859.38 727.1 L 845.54 727.1 C 845.6 733.32 848.01 738.29 852.47 741.53 C 856.32 744.15 861.38 745.67 867.42 745.85 Z M 822.1 757.49 L 822.1 751.66 L 827.67 751.66 L 827.67 698.75 L 822.1 698.75 L 822.1 693.16 L 869 666.37 L 915.9 693.16 L 915.9 698.75 L 910.3 698.75 L 910.3 751.66 L 915.9 751.66 L 915.9 757.49 Z" fill="#ffffff" stroke="none" pointer-events="all"/><path d="M 837.74 780.26 L 829.99 780.23 C 819.48 780.23 809.81 771.45 809.81 760.2 L 809.81 755.08 C 809.81 763.74 817.46 774.67 830.23 774.67 L 837.74 774.67 Z M 846.67 780.23 L 846.67 774.67 L 851.13 774.7 L 851.13 780.23 Z M 860.07 780.23 L 860.07 774.67 L 864.53 774.67 L 864.53 780.26 Z M 873.47 780.26 L 873.47 774.67 L 877.93 774.67 L 877.93 780.23 Z M 886.87 780.23 L 886.87 774.67 L 891.33 774.67 L 891.33 780.23 Z M 900.26 780.23 L 900.26 774.67 L 908.3 774.67 C 918.75 774.67 928.16 765.53 928.16 754.9 L 928.16 760.17 C 928.16 770.38 919.59 780.26 907.89 780.26 Z" fill-opacity="0.3" fill="#000000" stroke="none" pointer-events="all"/><path d="M 900.26 954 L 891.33 954 L 891.33 939.23 L 886.87 939.23 L 886.87 954 L 877.93 954 L 877.93 939.23 L 873.47 939.26 L 873.47 954 L 864.53 953.97 L 864.53 939.26 L 860.07 939.23 L 860.07 953.97 L 851.13 954 L 851.13 939.23 L 846.67 939.23 L 846.67 954 L 837.74 954 L 837.74 939.26 L 829.99 939.23 C 819.48 939.23 809.81 930.48 809.81 919.2 L 809.81 905.74 L 789.5 905.74 L 789.5 896.81 L 809.81 896.81 L 809.81 892.35 L 789.5 892.35 L 789.5 883.45 L 809.81 883.45 L 809.81 878.95 L 789.5 878.95 L 789.5 870.02 L 809.81 870.02 L 809.81 865.55 L 789.5 865.55 L 789.5 856.62 L 809.81 856.62 L 809.81 852.16 L 789.5 852.16 L 789.5 843.23 L 809.81 843.23 L 809.81 835.28 C 809.81 825.45 818.17 815.33 830.05 815.33 L 837.74 815.33 L 837.74 795 L 846.67 795.03 L 846.67 815.33 L 851.13 815.33 L 851.13 795 L 860.07 795.03 L 860.07 815.33 L 864.53 815.33 L 864.53 795.03 L 873.47 795 L 873.47 815.33 L 877.93 815.33 L 877.93 795 L 886.87 795.03 L 886.87 815.33 L 891.33 815.33 L 891.33 795 L 900.26 795.03 L 900.26 815.33 L 908.09 815.33 C 918.22 815.33 928.16 823.76 928.16 835.67 L 928.16 843.23 L 948.5 843.23 L 948.5 852.16 L 928.16 852.16 L 928.16 856.62 L 948.5 856.62 L 948.5 865.55 L 928.16 865.55 L 928.16 870.02 L 948.5 870.05 L 948.5 878.95 L 928.16 878.95 L 928.16 883.45 L 948.5 883.45 L 948.5 892.35 L 928.16 892.35 L 928.16 896.81 L 948.5 896.81 L 948.5 905.74 L 928.16 905.74 L 928.16 919.17 C 928.16 929.35 919.59 939.26 907.89 939.26 L 900.26 939.23 Z" fill="#5294cf" stroke="none" pointer-events="all"/><path d="M 867.42 870.02 C 865.25 869.39 863.04 868.62 862 867.61 C 860.84 866.6 860.34 864.54 861.91 862.43 C 863.46 860.67 865.96 860.43 867.42 860.4 Z M 870.99 894.37 L 870.99 883.62 C 872.78 884.19 874.6 884.82 876.09 885.77 C 877.55 886.81 878.59 888.12 877.96 890.56 C 877.16 893 874.33 894.1 870.99 894.37 Z M 867.42 911.55 L 870.99 911.55 L 870.99 904.85 C 875.55 904.67 879.84 903.81 883.26 902.05 C 887.91 899.67 890.14 896.43 891.21 892.94 C 892.28 889.58 892.61 884.07 889.99 880.17 C 886.15 874.01 876.35 871.9 870.99 870.67 L 870.99 860.64 C 873.62 861.39 876.56 862.96 876.35 867.1 L 890.2 867.1 C 890.26 861.18 887.67 856.5 883.23 853.53 C 879.18 850.88 874.98 850.04 870.99 849.69 L 870.99 842.54 L 867.42 842.54 L 867.42 849.27 C 863.04 849.51 858.73 850.37 854.62 852.72 C 849.77 855.64 847.35 859.81 847.12 865.29 C 846.91 871.57 850.03 875.35 854.17 877.76 C 858.31 880.11 862.9 881.27 867.42 882.52 L 867.42 894.13 C 862.06 893.66 859.59 890.83 859.38 886.1 L 845.54 886.1 C 845.6 892.32 848.01 897.29 852.47 900.53 C 856.32 903.15 861.38 904.67 867.42 904.85 Z M 822.1 916.49 L 822.1 910.66 L 827.67 910.66 L 827.67 857.75 L 822.1 857.75 L 822.1 852.16 L 869 825.37 L 915.9 852.16 L 915.9 857.75 L 910.3 857.75 L 910.3 910.66 L 915.9 910.66 L 915.9 916.49 Z" fill="#ffffff" stroke="none" pointer-events="all"/><path d="M 837.74 939.26 L 829.99 939.23 C 819.48 939.23 809.81 930.45 809.81 919.2 L 809.81 914.08 C 809.81 922.74 817.46 933.67 830.23 933.67 L 837.74 933.67 Z M 846.67 939.23 L 846.67 933.67 L 851.13 933.7 L 851.13 939.23 Z M 860.07 939.23 L 860.07 933.67 L 864.53 933.67 L 864.53 939.26 Z M 873.47 939.26 L 873.47 933.67 L 877.93 933.67 L 877.93 939.23 Z M 886.87 939.23 L 886.87 933.67 L 891.33 933.67 L 891.33 939.23 Z M 900.26 939.23 L 900.26 933.67 L 908.3 933.67 C 918.75 933.67 928.16 924.53 928.16 913.9 L 928.16 919.17 C 928.16 929.38 919.59 939.26 907.89 939.26 Z" fill-opacity="0.3" fill="#000000" stroke="none" pointer-events="all"/><path d="M 741.26 954 L 732.33 954 L 732.33 939.23 L 727.87 939.23 L 727.87 954 L 718.93 954 L 718.93 939.23 L 714.47 939.26 L 714.47 954 L 705.53 953.97 L 705.53 939.26 L 701.07 939.23 L 701.07 953.97 L 692.13 954 L 692.13 939.23 L 687.67 939.23 L 687.67 954 L 678.74 954 L 678.74 939.26 L 670.99 939.23 C 660.48 939.23 650.81 930.48 650.81 919.2 L 650.81 905.74 L 630.5 905.74 L 630.5 896.81 L 650.81 896.81 L 650.81 892.35 L 630.5 892.35 L 630.5 883.45 L 650.81 883.45 L 650.81 878.95 L 630.5 878.95 L 630.5 870.02 L 650.81 870.02 L 650.81 865.55 L 630.5 865.55 L 630.5 856.62 L 650.81 856.62 L 650.81 852.16 L 630.5 852.16 L 630.5 843.23 L 650.81 843.23 L 650.81 835.28 C 650.81 825.45 659.17 815.33 671.05 815.33 L 678.74 815.33 L 678.74 795 L 687.67 795.03 L 687.67 815.33 L 692.13 815.33 L 692.13 795 L 701.07 795.03 L 701.07 815.33 L 705.53 815.33 L 705.53 795.03 L 714.47 795 L 714.47 815.33 L 718.93 815.33 L 718.93 795 L 727.87 795.03 L 727.87 815.33 L 732.33 815.33 L 732.33 795 L 741.26 795.03 L 741.26 815.33 L 749.09 815.33 C 759.22 815.33 769.16 823.76 769.16 835.67 L 769.16 843.23 L 789.5 843.23 L 789.5 852.16 L 769.16 852.16 L 769.16 856.62 L 789.5 856.62 L 789.5 865.55 L 769.16 865.55 L 769.16 870.02 L 789.5 870.05 L 789.5 878.95 L 769.16 878.95 L 769.16 883.45 L 789.5 883.45 L 789.5 892.35 L 769.16 892.35 L 769.16 896.81 L 789.5 896.81 L 789.5 905.74 L 769.16 905.74 L 769.16 919.17 C 769.16 929.35 760.59 939.26 748.89 939.26 L 741.26 939.23 Z" fill="#5294cf" stroke="none" pointer-events="all"/><path d="M 708.42 870.02 C 706.25 869.39 704.04 868.62 703 867.61 C 701.84 866.6 701.34 864.54 702.91 862.43 C 704.46 860.67 706.96 860.43 708.42 860.4 Z M 711.99 894.37 L 711.99 883.62 C 713.78 884.19 715.6 884.82 717.09 885.77 C 718.55 886.81 719.59 888.12 718.96 890.56 C 718.16 893 715.33 894.1 711.99 894.37 Z M 708.42 911.55 L 711.99 911.55 L 711.99 904.85 C 716.55 904.67 720.84 903.81 724.26 902.05 C 728.91 899.67 731.14 896.43 732.21 892.94 C 733.28 889.58 733.61 884.07 730.99 880.17 C 727.15 874.01 717.35 871.9 711.99 870.67 L 711.99 860.64 C 714.62 861.39 717.56 862.96 717.35 867.1 L 731.2 867.1 C 731.26 861.18 728.67 856.5 724.23 853.53 C 720.18 850.88 715.98 850.04 711.99 849.69 L 711.99 842.54 L 708.42 842.54 L 708.42 849.27 C 704.04 849.51 699.73 850.37 695.62 852.72 C 690.77 855.64 688.35 859.81 688.12 865.29 C 687.91 871.57 691.03 875.35 695.17 877.76 C 699.31 880.11 703.9 881.27 708.42 882.52 L 708.42 894.13 C 703.06 893.66 700.59 890.83 700.38 886.1 L 686.54 886.1 C 686.6 892.32 689.01 897.29 693.47 900.53 C 697.32 903.15 702.38 904.67 708.42 904.85 Z M 663.1 916.49 L 663.1 910.66 L 668.67 910.66 L 668.67 857.75 L 663.1 857.75 L 663.1 852.16 L 710 825.37 L 756.9 852.16 L 756.9 857.75 L 751.3 857.75 L 751.3 910.66 L 756.9 910.66 L 756.9 916.49 Z" fill="#ffffff" stroke="none" pointer-events="all"/><path d="M 678.74 939.26 L 670.99 939.23 C 660.48 939.23 650.81 930.45 650.81 919.2 L 650.81 914.08 C 650.81 922.74 658.46 933.67 671.23 933.67 L 678.74 933.67 Z M 687.67 939.23 L 687.67 933.67 L 692.13 933.7 L 692.13 939.23 Z M 701.07 939.23 L 701.07 933.67 L 705.53 933.67 L 705.53 939.26 Z M 714.47 939.26 L 714.47 933.67 L 718.93 933.67 L 718.93 939.23 Z M 727.87 939.23 L 727.87 933.67 L 732.33 933.67 L 732.33 939.23 Z M 741.26 939.23 L 741.26 933.67 L 749.3 933.67 C 759.75 933.67 769.16 924.53 769.16 913.9 L 769.16 919.17 C 769.16 929.38 760.59 939.26 748.89 939.26 Z" fill-opacity="0.3" fill="#000000" stroke="none" pointer-events="all"/><path d="M 588.76 954 L 579.83 954 L 579.83 939.23 L 575.37 939.23 L 575.37 954 L 566.43 954 L 566.43 939.23 L 561.97 939.26 L 561.97 954 L 553.03 953.97 L 553.03 939.26 L 548.57 939.23 L 548.57 953.97 L 539.63 954 L 539.63 939.23 L 535.17 939.23 L 535.17 954 L 526.24 954 L 526.24 939.26 L 518.49 939.23 C 507.98 939.23 498.31 930.48 498.31 919.2 L 498.31 905.74 L 478 905.74 L 478 896.81 L 498.31 896.81 L 498.31 892.35 L 478 892.35 L 478 883.45 L 498.31 883.45 L 498.31 878.95 L 478 878.95 L 478 870.02 L 498.31 870.02 L 498.31 865.55 L 478 865.55 L 478 856.62 L 498.31 856.62 L 498.31 852.16 L 478 852.16 L 478 843.23 L 498.31 843.23 L 498.31 835.28 C 498.31 825.45 506.67 815.33 518.55 815.33 L 526.24 815.33 L 526.24 795 L 535.17 795.03 L 535.17 815.33 L 539.63 815.33 L 539.63 795 L 548.57 795.03 L 548.57 815.33 L 553.03 815.33 L 553.03 795.03 L 561.97 795 L 561.97 815.33 L 566.43 815.33 L 566.43 795 L 575.37 795.03 L 575.37 815.33 L 579.83 815.33 L 579.83 795 L 588.76 795.03 L 588.76 815.33 L 596.59 815.33 C 606.72 815.33 616.66 823.76 616.66 835.67 L 616.66 843.23 L 637 843.23 L 637 852.16 L 616.66 852.16 L 616.66 856.62 L 637 856.62 L 637 865.55 L 616.66 865.55 L 616.66 870.02 L 637 870.05 L 637 878.95 L 616.66 878.95 L 616.66 883.45 L 637 883.45 L 637 892.35 L 616.66 892.35 L 616.66 896.81 L 637 896.81 L 637 905.74 L 616.66 905.74 L 616.66 919.17 C 616.66 929.35 608.09 939.26 596.39 939.26 L 588.76 939.23 Z" fill="#5294cf" stroke="none" pointer-events="all"/><path d="M 555.92 870.02 C 553.75 869.39 551.54 868.62 550.5 867.61 C 549.34 866.6 548.84 864.54 550.41 862.43 C 551.96 860.67 554.46 860.43 555.92 860.4 Z M 559.49 894.37 L 559.49 883.62 C 561.28 884.19 563.1 884.82 564.59 885.77 C 566.05 886.81 567.09 888.12 566.46 890.56 C 565.66 893 562.83 894.1 559.49 894.37 Z M 555.92 911.55 L 559.49 911.55 L 559.49 904.85 C 564.05 904.67 568.34 903.81 571.76 902.05 C 576.41 899.67 578.64 896.43 579.71 892.94 C 580.78 889.58 581.11 884.07 578.49 880.17 C 574.65 874.01 564.85 871.9 559.49 870.67 L 559.49 860.64 C 562.12 861.39 565.06 862.96 564.85 867.1 L 578.7 867.1 C 578.76 861.18 576.17 856.5 571.73 853.53 C 567.68 850.88 563.48 850.04 559.49 849.69 L 559.49 842.54 L 555.92 842.54 L 555.92 849.27 C 551.54 849.51 547.23 850.37 543.12 852.72 C 538.27 855.64 535.85 859.81 535.62 865.29 C 535.41 871.57 538.53 875.35 542.67 877.76 C 546.81 880.11 551.4 881.27 555.92 882.52 L 555.92 894.13 C 550.56 893.66 548.09 890.83 547.88 886.1 L 534.04 886.1 C 534.1 892.32 536.51 897.29 540.97 900.53 C 544.82 903.15 549.88 904.67 555.92 904.85 Z M 510.6 916.49 L 510.6 910.66 L 516.17 910.66 L 516.17 857.75 L 510.6 857.75 L 510.6 852.16 L 557.5 825.37 L 604.4 852.16 L 604.4 857.75 L 598.8 857.75 L 598.8 910.66 L 604.4 910.66 L 604.4 916.49 Z" fill="#ffffff" stroke="none" pointer-events="all"/><path d="M 526.24 939.26 L 518.49 939.23 C 507.98 939.23 498.31 930.45 498.31 919.2 L 498.31 914.08 C 498.31 922.74 505.96 933.67 518.73 933.67 L 526.24 933.67 Z M 535.17 939.23 L 535.17 933.67 L 539.63 933.7 L 539.63 939.23 Z M 548.57 939.23 L 548.57 933.67 L 553.03 933.67 L 553.03 939.26 Z M 561.97 939.26 L 561.97 933.67 L 566.43 933.67 L 566.43 939.23 Z M 575.37 939.23 L 575.37 933.67 L 579.83 933.67 L 579.83 939.23 Z M 588.76 939.23 L 588.76 933.67 L 596.8 933.67 C 607.25 933.67 616.66 924.53 616.66 913.9 L 616.66 919.17 C 616.66 929.38 608.09 939.26 596.39 939.26 Z" fill-opacity="0.3" fill="#000000" stroke="none" pointer-events="all"/><path d="M 429.76 954 L 420.83 954 L 420.83 939.23 L 416.37 939.23 L 416.37 954 L 407.43 954 L 407.43 939.23 L 402.97 939.26 L 402.97 954 L 394.03 953.97 L 394.03 939.26 L 389.57 939.23 L 389.57 953.97 L 380.63 954 L 380.63 939.23 L 376.17 939.23 L 376.17 954 L 367.24 954 L 367.24 939.26 L 359.49 939.23 C 348.98 939.23 339.31 930.48 339.31 919.2 L 339.31 905.74 L 319 905.74 L 319 896.81 L 339.31 896.81 L 339.31 892.35 L 319 892.35 L 319 883.45 L 339.31 883.45 L 339.31 878.95 L 319 878.95 L 319 870.02 L 339.31 870.02 L 339.31 865.55 L 319 865.55 L 319 856.62 L 339.31 856.62 L 339.31 852.16 L 319 852.16 L 319 843.23 L 339.31 843.23 L 339.31 835.28 C 339.31 825.45 347.67 815.33 359.55 815.33 L 367.24 815.33 L 367.24 795 L 376.17 795.03 L 376.17 815.33 L 380.63 815.33 L 380.63 795 L 389.57 795.03 L 389.57 815.33 L 394.03 815.33 L 394.03 795.03 L 402.97 795 L 402.97 815.33 L 407.43 815.33 L 407.43 795 L 416.37 795.03 L 416.37 815.33 L 420.83 815.33 L 420.83 795 L 429.76 795.03 L 429.76 815.33 L 437.59 815.33 C 447.72 815.33 457.66 823.76 457.66 835.67 L 457.66 843.23 L 478 843.23 L 478 852.16 L 457.66 852.16 L 457.66 856.62 L 478 856.62 L 478 865.55 L 457.66 865.55 L 457.66 870.02 L 478 870.05 L 478 878.95 L 457.66 878.95 L 457.66 883.45 L 478 883.45 L 478 892.35 L 457.66 892.35 L 457.66 896.81 L 478 896.81 L 478 905.74 L 457.66 905.74 L 457.66 919.17 C 457.66 929.35 449.09 939.26 437.39 939.26 L 429.76 939.23 Z" fill="#5294cf" stroke="none" pointer-events="all"/><path d="M 396.92 870.02 C 394.75 869.39 392.54 868.62 391.5 867.61 C 390.34 866.6 389.84 864.54 391.41 862.43 C 392.96 860.67 395.46 860.43 396.92 860.4 Z M 400.49 894.37 L 400.49 883.62 C 402.28 884.19 404.1 884.82 405.59 885.77 C 407.05 886.81 408.09 888.12 407.46 890.56 C 406.66 893 403.83 894.1 400.49 894.37 Z M 396.92 911.55 L 400.49 911.55 L 400.49 904.85 C 405.05 904.67 409.34 903.81 412.76 902.05 C 417.41 899.67 419.64 896.43 420.71 892.94 C 421.78 889.58 422.11 884.07 419.49 880.17 C 415.65 874.01 405.85 871.9 400.49 870.67 L 400.49 860.64 C 403.12 861.39 406.06 862.96 405.85 867.1 L 419.7 867.1 C 419.76 861.18 417.17 856.5 412.73 853.53 C 408.68 850.88 404.48 850.04 400.49 849.69 L 400.49 842.54 L 396.92 842.54 L 396.92 849.27 C 392.54 849.51 388.23 850.37 384.12 852.72 C 379.27 855.64 376.85 859.81 376.62 865.29 C 376.41 871.57 379.53 875.35 383.67 877.76 C 387.81 880.11 392.4 881.27 396.92 882.52 L 396.92 894.13 C 391.56 893.66 389.09 890.83 388.88 886.1 L 375.04 886.1 C 375.1 892.32 377.51 897.29 381.97 900.53 C 385.82 903.15 390.88 904.67 396.92 904.85 Z M 351.6 916.49 L 351.6 910.66 L 357.17 910.66 L 357.17 857.75 L 351.6 857.75 L 351.6 852.16 L 398.5 825.37 L 445.4 852.16 L 445.4 857.75 L 439.8 857.75 L 439.8 910.66 L 445.4 910.66 L 445.4 916.49 Z" fill="#ffffff" stroke="none" pointer-events="all"/><path d="M 367.24 939.26 L 359.49 939.23 C 348.98 939.23 339.31 930.45 339.31 919.2 L 339.31 914.08 C 339.31 922.74 346.96 933.67 359.73 933.67 L 367.24 933.67 Z M 376.17 939.23 L 376.17 933.67 L 380.63 933.7 L 380.63 939.23 Z M 389.57 939.23 L 389.57 933.67 L 394.03 933.67 L 394.03 939.26 Z M 402.97 939.26 L 402.97 933.67 L 407.43 933.67 L 407.43 939.23 Z M 416.37 939.23 L 416.37 933.67 L 420.83 933.67 L 420.83 939.23 Z M 429.76 939.23 L 429.76 933.67 L 437.8 933.67 C 448.25 933.67 457.66 924.53 457.66 913.9 L 457.66 919.17 C 457.66 929.38 449.09 939.26 437.39 939.26 Z" fill-opacity="0.3" fill="#000000" stroke="none" pointer-events="all"/><path d="M 270.76 954 L 261.83 954 L 261.83 939.23 L 257.37 939.23 L 257.37 954 L 248.43 954 L 248.43 939.23 L 243.97 939.26 L 243.97 954 L 235.03 953.97 L 235.03 939.26 L 230.57 939.23 L 230.57 953.97 L 221.63 954 L 221.63 939.23 L 217.17 939.23 L 217.17 954 L 208.24 954 L 208.24 939.26 L 200.49 939.23 C 189.98 939.23 180.31 930.48 180.31 919.2 L 180.31 905.74 L 160 905.74 L 160 896.81 L 180.31 896.81 L 180.31 892.35 L 160 892.35 L 160 883.45 L 180.31 883.45 L 180.31 878.95 L 160 878.95 L 160 870.02 L 180.31 870.02 L 180.31 865.55 L 160 865.55 L 160 856.62 L 180.31 856.62 L 180.31 852.16 L 160 852.16 L 160 843.23 L 180.31 843.23 L 180.31 835.28 C 180.31 825.45 188.67 815.33 200.55 815.33 L 208.24 815.33 L 208.24 795 L 217.17 795.03 L 217.17 815.33 L 221.63 815.33 L 221.63 795 L 230.57 795.03 L 230.57 815.33 L 235.03 815.33 L 235.03 795.03 L 243.97 795 L 243.97 815.33 L 248.43 815.33 L 248.43 795 L 257.37 795.03 L 257.37 815.33 L 261.83 815.33 L 261.83 795 L 270.76 795.03 L 270.76 815.33 L 278.59 815.33 C 288.72 815.33 298.66 823.76 298.66 835.67 L 298.66 843.23 L 319 843.23 L 319 852.16 L 298.66 852.16 L 298.66 856.62 L 319 856.62 L 319 865.55 L 298.66 865.55 L 298.66 870.02 L 319 870.05 L 319 878.95 L 298.66 878.95 L 298.66 883.45 L 319 883.45 L 319 892.35 L 298.66 892.35 L 298.66 896.81 L 319 896.81 L 319 905.74 L 298.66 905.74 L 298.66 919.17 C 298.66 929.35 290.09 939.26 278.39 939.26 L 270.76 939.23 Z" fill="#5294cf" stroke="none" pointer-events="all"/><path d="M 237.92 870.02 C 235.75 869.39 233.54 868.62 232.5 867.61 C 231.34 866.6 230.84 864.54 232.41 862.43 C 233.96 860.67 236.46 860.43 237.92 860.4 Z M 241.49 894.37 L 241.49 883.62 C 243.28 884.19 245.1 884.82 246.59 885.77 C 248.05 886.81 249.09 888.12 248.46 890.56 C 247.66 893 244.83 894.1 241.49 894.37 Z M 237.92 911.55 L 241.49 911.55 L 241.49 904.85 C 246.05 904.67 250.34 903.81 253.76 902.05 C 258.41 899.67 260.64 896.43 261.71 892.94 C 262.78 889.58 263.11 884.07 260.49 880.17 C 256.65 874.01 246.85 871.9 241.49 870.67 L 241.49 860.64 C 244.12 861.39 247.06 862.96 246.85 867.1 L 260.7 867.1 C 260.76 861.18 258.17 856.5 253.73 853.53 C 249.68 850.88 245.48 850.04 241.49 849.69 L 241.49 842.54 L 237.92 842.54 L 237.92 849.27 C 233.54 849.51 229.23 850.37 225.12 852.72 C 220.27 855.64 217.85 859.81 217.62 865.29 C 217.41 871.57 220.53 875.35 224.67 877.76 C 228.81 880.11 233.4 881.27 237.92 882.52 L 237.92 894.13 C 232.56 893.66 230.09 890.83 229.88 886.1 L 216.04 886.1 C 216.1 892.32 218.51 897.29 222.97 900.53 C 226.82 903.15 231.88 904.67 237.92 904.85 Z M 192.6 916.49 L 192.6 910.66 L 198.17 910.66 L 198.17 857.75 L 192.6 857.75 L 192.6 852.16 L 239.5 825.37 L 286.4 852.16 L 286.4 857.75 L 280.8 857.75 L 280.8 910.66 L 286.4 910.66 L 286.4 916.49 Z" fill="#ffffff" stroke="none" pointer-events="all"/><path d="M 208.24 939.26 L 200.49 939.23 C 189.98 939.23 180.31 930.45 180.31 919.2 L 180.31 914.08 C 180.31 922.74 187.96 933.67 200.73 933.67 L 208.24 933.67 Z M 217.17 939.23 L 217.17 933.67 L 221.63 933.7 L 221.63 939.23 Z M 230.57 939.23 L 230.57 933.67 L 235.03 933.67 L 235.03 939.26 Z M 243.97 939.26 L 243.97 933.67 L 248.43 933.67 L 248.43 939.23 Z M 257.37 939.23 L 257.37 933.67 L 261.83 933.67 L 261.83 939.23 Z M 270.76 939.23 L 270.76 933.67 L 278.8 933.67 C 289.25 933.67 298.66 924.53 298.66 913.9 L 298.66 919.17 C 298.66 929.38 290.09 939.26 278.39 939.26 Z" fill-opacity="0.3" fill="#000000" stroke="none" pointer-events="all"/><path d="M 111.76 954 L 102.83 954 L 102.83 939.23 L 98.37 939.23 L 98.37 954 L 89.43 954 L 89.43 939.23 L 84.97 939.26 L 84.97 954 L 76.03 953.97 L 76.03 939.26 L 71.57 939.23 L 71.57 953.97 L 62.63 954 L 62.63 939.23 L 58.17 939.23 L 58.17 954 L 49.24 954 L 49.24 939.26 L 41.49 939.23 C 30.98 939.23 21.31 930.48 21.31 919.2 L 21.31 905.74 L 1 905.74 L 1 896.81 L 21.31 896.81 L 21.31 892.35 L 1 892.35 L 1 883.45 L 21.31 883.45 L 21.31 878.95 L 1 878.95 L 1 870.02 L 21.31 870.02 L 21.31 865.55 L 1 865.55 L 1 856.62 L 21.31 856.62 L 21.31 852.16 L 1 852.16 L 1 843.23 L 21.31 843.23 L 21.31 835.28 C 21.31 825.45 29.67 815.33 41.55 815.33 L 49.24 815.33 L 49.24 795 L 58.17 795.03 L 58.17 815.33 L 62.63 815.33 L 62.63 795 L 71.57 795.03 L 71.57 815.33 L 76.03 815.33 L 76.03 795.03 L 84.97 795 L 84.97 815.33 L 89.43 815.33 L 89.43 795 L 98.37 795.03 L 98.37 815.33 L 102.83 815.33 L 102.83 795 L 111.76 795.03 L 111.76 815.33 L 119.59 815.33 C 129.72 815.33 139.66 823.76 139.66 835.67 L 139.66 843.23 L 160 843.23 L 160 852.16 L 139.66 852.16 L 139.66 856.62 L 160 856.62 L 160 865.55 L 139.66 865.55 L 139.66 870.02 L 160 870.05 L 160 878.95 L 139.66 878.95 L 139.66 883.45 L 160 883.45 L 160 892.35 L 139.66 892.35 L 139.66 896.81 L 160 896.81 L 160 905.74 L 139.66 905.74 L 139.66 919.17 C 139.66 929.35 131.09 939.26 119.39 939.26 L 111.76 939.23 Z" fill="#5294cf" stroke="none" pointer-events="all"/><path d="M 78.92 870.02 C 76.75 869.39 74.54 868.62 73.5 867.61 C 72.34 866.6 71.84 864.54 73.41 862.43 C 74.96 860.67 77.46 860.43 78.92 860.4 Z M 82.49 894.37 L 82.49 883.62 C 84.28 884.19 86.1 884.82 87.59 885.77 C 89.05 886.81 90.09 888.12 89.46 890.56 C 88.66 893 85.83 894.1 82.49 894.37 Z M 78.92 911.55 L 82.49 911.55 L 82.49 904.85 C 87.05 904.67 91.34 903.81 94.76 902.05 C 99.41 899.67 101.64 896.43 102.71 892.94 C 103.78 889.58 104.11 884.07 101.49 880.17 C 97.65 874.01 87.85 871.9 82.49 870.67 L 82.49 860.64 C 85.12 861.39 88.06 862.96 87.85 867.1 L 101.7 867.1 C 101.76 861.18 99.17 856.5 94.73 853.53 C 90.68 850.88 86.48 850.04 82.49 849.69 L 82.49 842.54 L 78.92 842.54 L 78.92 849.27 C 74.54 849.51 70.23 850.37 66.12 852.72 C 61.27 855.64 58.85 859.81 58.62 865.29 C 58.41 871.57 61.53 875.35 65.67 877.76 C 69.81 880.11 74.4 881.27 78.92 882.52 L 78.92 894.13 C 73.56 893.66 71.09 890.83 70.88 886.1 L 57.04 886.1 C 57.1 892.32 59.51 897.29 63.97 900.53 C 67.82 903.15 72.88 904.67 78.92 904.85 Z M 33.6 916.49 L 33.6 910.66 L 39.17 910.66 L 39.17 857.75 L 33.6 857.75 L 33.6 852.16 L 80.5 825.37 L 127.4 852.16 L 127.4 857.75 L 121.8 857.75 L 121.8 910.66 L 127.4 910.66 L 127.4 916.49 Z" fill="#ffffff" stroke="none" pointer-events="all"/><path d="M 49.24 939.26 L 41.49 939.23 C 30.98 939.23 21.31 930.45 21.31 919.2 L 21.31 914.08 C 21.31 922.74 28.96 933.67 41.73 933.67 L 49.24 933.67 Z M 58.17 939.23 L 58.17 933.67 L 62.63 933.7 L 62.63 939.23 Z M 71.57 939.23 L 71.57 933.67 L 76.03 933.67 L 76.03 939.26 Z M 84.97 939.26 L 84.97 933.67 L 89.43 933.67 L 89.43 939.23 Z M 98.37 939.23 L 98.37 933.67 L 102.83 933.67 L 102.83 939.23 Z M 111.76 939.23 L 111.76 933.67 L 119.8 933.67 C 130.25 933.67 139.66 924.53 139.66 913.9 L 139.66 919.17 C 139.66 929.38 131.09 939.26 119.39 939.26 Z" fill-opacity="0.3" fill="#000000" stroke="none" pointer-events="all"/><path d="M 111.76 795 L 102.83 795 L 102.83 780.23 L 98.37 780.23 L 98.37 795 L 89.43 795 L 89.43 780.23 L 84.97 780.26 L 84.97 795 L 76.03 794.97 L 76.03 780.26 L 71.57 780.23 L 71.57 794.97 L 62.63 795 L 62.63 780.23 L 58.17 780.23 L 58.17 795 L 49.24 795 L 49.24 780.26 L 41.49 780.23 C 30.98 780.23 21.31 771.48 21.31 760.2 L 21.31 746.74 L 1 746.74 L 1 737.81 L 21.31 737.81 L 21.31 733.35 L 1 733.35 L 1 724.45 L 21.31 724.45 L 21.31 719.95 L 1 719.95 L 1 711.02 L 21.31 711.02 L 21.31 706.55 L 1 706.55 L 1 697.62 L 21.31 697.62 L 21.31 693.16 L 1 693.16 L 1 684.23 L 21.31 684.23 L 21.31 676.28 C 21.31 666.45 29.67 656.33 41.55 656.33 L 49.24 656.33 L 49.24 636 L 58.17 636.03 L 58.17 656.33 L 62.63 656.33 L 62.63 636 L 71.57 636.03 L 71.57 656.33 L 76.03 656.33 L 76.03 636.03 L 84.97 636 L 84.97 656.33 L 89.43 656.33 L 89.43 636 L 98.37 636.03 L 98.37 656.33 L 102.83 656.33 L 102.83 636 L 111.76 636.03 L 111.76 656.33 L 119.59 656.33 C 129.72 656.33 139.66 664.76 139.66 676.67 L 139.66 684.23 L 160 684.23 L 160 693.16 L 139.66 693.16 L 139.66 697.62 L 160 697.62 L 160 706.55 L 139.66 706.55 L 139.66 711.02 L 160 711.05 L 160 719.95 L 139.66 719.95 L 139.66 724.45 L 160 724.45 L 160 733.35 L 139.66 733.35 L 139.66 737.81 L 160 737.81 L 160 746.74 L 139.66 746.74 L 139.66 760.17 C 139.66 770.35 131.09 780.26 119.39 780.26 L 111.76 780.23 Z" fill="#5294cf" stroke="none" pointer-events="all"/><path d="M 78.92 711.02 C 76.75 710.39 74.54 709.62 73.5 708.61 C 72.34 707.6 71.84 705.54 73.41 703.43 C 74.96 701.67 77.46 701.43 78.92 701.4 Z M 82.49 735.37 L 82.49 724.62 C 84.28 725.19 86.1 725.82 87.59 726.77 C 89.05 727.81 90.09 729.12 89.46 731.56 C 88.66 734 85.83 735.1 82.49 735.37 Z M 78.92 752.55 L 82.49 752.55 L 82.49 745.85 C 87.05 745.67 91.34 744.81 94.76 743.05 C 99.41 740.67 101.64 737.43 102.71 733.94 C 103.78 730.58 104.11 725.07 101.49 721.17 C 97.65 715.01 87.85 712.9 82.49 711.67 L 82.49 701.64 C 85.12 702.39 88.06 703.96 87.85 708.1 L 101.7 708.1 C 101.76 702.18 99.17 697.5 94.73 694.53 C 90.68 691.88 86.48 691.04 82.49 690.69 L 82.49 683.54 L 78.92 683.54 L 78.92 690.27 C 74.54 690.51 70.23 691.37 66.12 693.72 C 61.27 696.64 58.85 700.81 58.62 706.29 C 58.41 712.57 61.53 716.35 65.67 718.76 C 69.81 721.11 74.4 722.27 78.92 723.52 L 78.92 735.13 C 73.56 734.66 71.09 731.83 70.88 727.1 L 57.04 727.1 C 57.1 733.32 59.51 738.29 63.97 741.53 C 67.82 744.15 72.88 745.67 78.92 745.85 Z M 33.6 757.49 L 33.6 751.66 L 39.17 751.66 L 39.17 698.75 L 33.6 698.75 L 33.6 693.16 L 80.5 666.37 L 127.4 693.16 L 127.4 698.75 L 121.8 698.75 L 121.8 751.66 L 127.4 751.66 L 127.4 757.49 Z" fill="#ffffff" stroke="none" pointer-events="all"/><path d="M 49.24 780.26 L 41.49 780.23 C 30.98 780.23 21.31 771.45 21.31 760.2 L 21.31 755.08 C 21.31 763.74 28.96 774.67 41.73 774.67 L 49.24 774.67 Z M 58.17 780.23 L 58.17 774.67 L 62.63 774.7 L 62.63 780.23 Z M 71.57 780.23 L 71.57 774.67 L 76.03 774.67 L 76.03 780.26 Z M 84.97 780.26 L 84.97 774.67 L 89.43 774.67 L 89.43 780.23 Z M 98.37 780.23 L 98.37 774.67 L 102.83 774.67 L 102.83 780.23 Z M 111.76 780.23 L 111.76 774.67 L 119.8 774.67 C 130.25 774.67 139.66 765.53 139.66 754.9 L 139.66 760.17 C 139.66 770.38 131.09 780.26 119.39 780.26 Z" fill-opacity="0.3" fill="#000000" stroke="none" pointer-events="all"/><path d="M 111.76 636 L 102.83 636 L 102.83 621.23 L 98.37 621.23 L 98.37 636 L 89.43 636 L 89.43 621.23 L 84.97 621.26 L 84.97 636 L 76.03 635.97 L 76.03 621.26 L 71.57 621.23 L 71.57 635.97 L 62.63 636 L 62.63 621.23 L 58.17 621.23 L 58.17 636 L 49.24 636 L 49.24 621.26 L 41.49 621.23 C 30.98 621.23 21.31 612.48 21.31 601.2 L 21.31 587.74 L 1 587.74 L 1 578.81 L 21.31 578.81 L 21.31 574.35 L 1 574.35 L 1 565.45 L 21.31 565.45 L 21.31 560.95 L 1 560.95 L 1 552.02 L 21.31 552.02 L 21.31 547.55 L 1 547.55 L 1 538.62 L 21.31 538.62 L 21.31 534.16 L 1 534.16 L 1 525.23 L 21.31 525.23 L 21.31 517.28 C 21.31 507.45 29.67 497.33 41.55 497.33 L 49.24 497.33 L 49.24 477 L 58.17 477.03 L 58.17 497.33 L 62.63 497.33 L 62.63 477 L 71.57 477.03 L 71.57 497.33 L 76.03 497.33 L 76.03 477.03 L 84.97 477 L 84.97 497.33 L 89.43 497.33 L 89.43 477 L 98.37 477.03 L 98.37 497.33 L 102.83 497.33 L 102.83 477 L 111.76 477.03 L 111.76 497.33 L 119.59 497.33 C 129.72 497.33 139.66 505.76 139.66 517.67 L 139.66 525.23 L 160 525.23 L 160 534.16 L 139.66 534.16 L 139.66 538.62 L 160 538.62 L 160 547.55 L 139.66 547.55 L 139.66 552.02 L 160 552.05 L 160 560.95 L 139.66 560.95 L 139.66 565.45 L 160 565.45 L 160 574.35 L 139.66 574.35 L 139.66 578.81 L 160 578.81 L 160 587.74 L 139.66 587.74 L 139.66 601.17 C 139.66 611.35 131.09 621.26 119.39 621.26 L 111.76 621.23 Z" fill="#5294cf" stroke="none" pointer-events="all"/><path d="M 78.92 552.02 C 76.75 551.39 74.54 550.62 73.5 549.61 C 72.34 548.6 71.84 546.54 73.41 544.43 C 74.96 542.67 77.46 542.43 78.92 542.4 Z M 82.49 576.37 L 82.49 565.62 C 84.28 566.19 86.1 566.82 87.59 567.77 C 89.05 568.81 90.09 570.12 89.46 572.56 C 88.66 575 85.83 576.1 82.49 576.37 Z M 78.92 593.55 L 82.49 593.55 L 82.49 586.85 C 87.05 586.67 91.34 585.81 94.76 584.05 C 99.41 581.67 101.64 578.43 102.71 574.94 C 103.78 571.58 104.11 566.07 101.49 562.17 C 97.65 556.01 87.85 553.9 82.49 552.67 L 82.49 542.64 C 85.12 543.39 88.06 544.96 87.85 549.1 L 101.7 549.1 C 101.76 543.18 99.17 538.5 94.73 535.53 C 90.68 532.88 86.48 532.04 82.49 531.69 L 82.49 524.54 L 78.92 524.54 L 78.92 531.27 C 74.54 531.51 70.23 532.37 66.12 534.72 C 61.27 537.64 58.85 541.81 58.62 547.29 C 58.41 553.57 61.53 557.35 65.67 559.76 C 69.81 562.11 74.4 563.27 78.92 564.52 L 78.92 576.13 C 73.56 575.66 71.09 572.83 70.88 568.1 L 57.04 568.1 C 57.1 574.32 59.51 579.29 63.97 582.53 C 67.82 585.15 72.88 586.67 78.92 586.85 Z M 33.6 598.49 L 33.6 592.66 L 39.17 592.66 L 39.17 539.75 L 33.6 539.75 L 33.6 534.16 L 80.5 507.37 L 127.4 534.16 L 127.4 539.75 L 121.8 539.75 L 121.8 592.66 L 127.4 592.66 L 127.4 598.49 Z" fill="#ffffff" stroke="none" pointer-events="all"/><path d="M 49.24 621.26 L 41.49 621.23 C 30.98 621.23 21.31 612.45 21.31 601.2 L 21.31 596.08 C 21.31 604.74 28.96 615.67 41.73 615.67 L 49.24 615.67 Z M 58.17 621.23 L 58.17 615.67 L 62.63 615.7 L 62.63 621.23 Z M 71.57 621.23 L 71.57 615.67 L 76.03 615.67 L 76.03 621.26 Z M 84.97 621.26 L 84.97 615.67 L 89.43 615.67 L 89.43 621.23 Z M 98.37 621.23 L 98.37 615.67 L 102.83 615.67 L 102.83 621.23 Z M 111.76 621.23 L 111.76 615.67 L 119.8 615.67 C 130.25 615.67 139.66 606.53 139.66 595.9 L 139.66 601.17 C 139.66 611.38 131.09 621.26 119.39 621.26 Z" fill-opacity="0.3" fill="#000000" stroke="none" pointer-events="all"/><path d="M 111.76 477 L 102.83 477 L 102.83 462.23 L 98.37 462.23 L 98.37 477 L 89.43 477 L 89.43 462.23 L 84.97 462.26 L 84.97 477 L 76.03 476.97 L 76.03 462.26 L 71.57 462.23 L 71.57 476.97 L 62.63 477 L 62.63 462.23 L 58.17 462.23 L 58.17 477 L 49.24 477 L 49.24 462.26 L 41.49 462.23 C 30.98 462.23 21.31 453.48 21.31 442.2 L 21.31 428.74 L 1 428.74 L 1 419.81 L 21.31 419.81 L 21.31 415.35 L 1 415.35 L 1 406.45 L 21.31 406.45 L 21.31 401.95 L 1 401.95 L 1 393.02 L 21.31 393.02 L 21.31 388.55 L 1 388.55 L 1 379.62 L 21.31 379.62 L 21.31 375.16 L 1 375.16 L 1 366.23 L 21.31 366.23 L 21.31 358.28 C 21.31 348.45 29.67 338.33 41.55 338.33 L 49.24 338.33 L 49.24 318 L 58.17 318.03 L 58.17 338.33 L 62.63 338.33 L 62.63 318 L 71.57 318.03 L 71.57 338.33 L 76.03 338.33 L 76.03 318.03 L 84.97 318 L 84.97 338.33 L 89.43 338.33 L 89.43 318 L 98.37 318.03 L 98.37 338.33 L 102.83 338.33 L 102.83 318 L 111.76 318.03 L 111.76 338.33 L 119.59 338.33 C 129.72 338.33 139.66 346.76 139.66 358.67 L 139.66 366.23 L 160 366.23 L 160 375.16 L 139.66 375.16 L 139.66 379.62 L 160 379.62 L 160 388.55 L 139.66 388.55 L 139.66 393.02 L 160 393.05 L 160 401.95 L 139.66 401.95 L 139.66 406.45 L 160 406.45 L 160 415.35 L 139.66 415.35 L 139.66 419.81 L 160 419.81 L 160 428.74 L 139.66 428.74 L 139.66 442.17 C 139.66 452.35 131.09 462.26 119.39 462.26 L 111.76 462.23 Z" fill="#5294cf" stroke="none" pointer-events="all"/><path d="M 78.92 393.02 C 76.75 392.39 74.54 391.62 73.5 390.61 C 72.34 389.6 71.84 387.54 73.41 385.43 C 74.96 383.67 77.46 383.43 78.92 383.4 Z M 82.49 417.37 L 82.49 406.62 C 84.28 407.19 86.1 407.82 87.59 408.77 C 89.05 409.81 90.09 411.12 89.46 413.56 C 88.66 416 85.83 417.1 82.49 417.37 Z M 78.92 434.55 L 82.49 434.55 L 82.49 427.85 C 87.05 427.67 91.34 426.81 94.76 425.05 C 99.41 422.67 101.64 419.43 102.71 415.94 C 103.78 412.58 104.11 407.07 101.49 403.17 C 97.65 397.01 87.85 394.9 82.49 393.67 L 82.49 383.64 C 85.12 384.39 88.06 385.96 87.85 390.1 L 101.7 390.1 C 101.76 384.18 99.17 379.5 94.73 376.53 C 90.68 373.88 86.48 373.04 82.49 372.69 L 82.49 365.54 L 78.92 365.54 L 78.92 372.27 C 74.54 372.51 70.23 373.37 66.12 375.72 C 61.27 378.64 58.85 382.81 58.62 388.29 C 58.41 394.57 61.53 398.35 65.67 400.76 C 69.81 403.11 74.4 404.27 78.92 405.52 L 78.92 417.13 C 73.56 416.66 71.09 413.83 70.88 409.1 L 57.04 409.1 C 57.1 415.32 59.51 420.29 63.97 423.53 C 67.82 426.15 72.88 427.67 78.92 427.85 Z M 33.6 439.49 L 33.6 433.66 L 39.17 433.66 L 39.17 380.75 L 33.6 380.75 L 33.6 375.16 L 80.5 348.37 L 127.4 375.16 L 127.4 380.75 L 121.8 380.75 L 121.8 433.66 L 127.4 433.66 L 127.4 439.49 Z" fill="#ffffff" stroke="none" pointer-events="all"/><path d="M 49.24 462.26 L 41.49 462.23 C 30.98 462.23 21.31 453.45 21.31 442.2 L 21.31 437.08 C 21.31 445.74 28.96 456.67 41.73 456.67 L 49.24 456.67 Z M 58.17 462.23 L 58.17 456.67 L 62.63 456.7 L 62.63 462.23 Z M 71.57 462.23 L 71.57 456.67 L 76.03 456.67 L 76.03 462.26 Z M 84.97 462.26 L 84.97 456.67 L 89.43 456.67 L 89.43 462.23 Z M 98.37 462.23 L 98.37 456.67 L 102.83 456.67 L 102.83 462.23 Z M 111.76 462.23 L 111.76 456.67 L 119.8 456.67 C 130.25 456.67 139.66 447.53 139.66 436.9 L 139.66 442.17 C 139.66 452.38 131.09 462.26 119.39 462.26 Z" fill-opacity="0.3" fill="#000000" stroke="none" pointer-events="all"/><path d="M 111.76 318 L 102.83 318 L 102.83 303.23 L 98.37 303.23 L 98.37 318 L 89.43 318 L 89.43 303.23 L 84.97 303.26 L 84.97 318 L 76.03 317.97 L 76.03 303.26 L 71.57 303.23 L 71.57 317.97 L 62.63 318 L 62.63 303.23 L 58.17 303.23 L 58.17 318 L 49.24 318 L 49.24 303.26 L 41.49 303.23 C 30.98 303.23 21.31 294.48 21.31 283.2 L 21.31 269.74 L 1 269.74 L 1 260.81 L 21.31 260.81 L 21.31 256.35 L 1 256.35 L 1 247.45 L 21.31 247.45 L 21.31 242.95 L 1 242.95 L 1 234.02 L 21.31 234.02 L 21.31 229.55 L 1 229.55 L 1 220.62 L 21.31 220.62 L 21.31 216.16 L 1 216.16 L 1 207.23 L 21.31 207.23 L 21.31 199.28 C 21.31 189.45 29.67 179.33 41.55 179.33 L 49.24 179.33 L 49.24 159 L 58.17 159.03 L 58.17 179.33 L 62.63 179.33 L 62.63 159 L 71.57 159.03 L 71.57 179.33 L 76.03 179.33 L 76.03 159.03 L 84.97 159 L 84.97 179.33 L 89.43 179.33 L 89.43 159 L 98.37 159.03 L 98.37 179.33 L 102.83 179.33 L 102.83 159 L 111.76 159.03 L 111.76 179.33 L 119.59 179.33 C 129.72 179.33 139.66 187.76 139.66 199.67 L 139.66 207.23 L 160 207.23 L 160 216.16 L 139.66 216.16 L 139.66 220.62 L 160 220.62 L 160 229.55 L 139.66 229.55 L 139.66 234.02 L 160 234.05 L 160 242.95 L 139.66 242.95 L 139.66 247.45 L 160 247.45 L 160 256.35 L 139.66 256.35 L 139.66 260.81 L 160 260.81 L 160 269.74 L 139.66 269.74 L 139.66 283.17 C 139.66 293.35 131.09 303.26 119.39 303.26 L 111.76 303.23 Z" fill="#5294cf" stroke="none" pointer-events="all"/><path d="M 78.92 234.02 C 76.75 233.39 74.54 232.62 73.5 231.61 C 72.34 230.6 71.84 228.54 73.41 226.43 C 74.96 224.67 77.46 224.43 78.92 224.4 Z M 82.49 258.37 L 82.49 247.62 C 84.28 248.19 86.1 248.82 87.59 249.77 C 89.05 250.81 90.09 252.12 89.46 254.56 C 88.66 257 85.83 258.1 82.49 258.37 Z M 78.92 275.55 L 82.49 275.55 L 82.49 268.85 C 87.05 268.67 91.34 267.81 94.76 266.05 C 99.41 263.67 101.64 260.43 102.71 256.94 C 103.78 253.58 104.11 248.07 101.49 244.17 C 97.65 238.01 87.85 235.9 82.49 234.67 L 82.49 224.64 C 85.12 225.39 88.06 226.96 87.85 231.1 L 101.7 231.1 C 101.76 225.18 99.17 220.5 94.73 217.53 C 90.68 214.88 86.48 214.04 82.49 213.69 L 82.49 206.54 L 78.92 206.54 L 78.92 213.27 C 74.54 213.51 70.23 214.37 66.12 216.72 C 61.27 219.64 58.85 223.81 58.62 229.29 C 58.41 235.57 61.53 239.35 65.67 241.76 C 69.81 244.11 74.4 245.27 78.92 246.52 L 78.92 258.13 C 73.56 257.66 71.09 254.83 70.88 250.1 L 57.04 250.1 C 57.1 256.32 59.51 261.29 63.97 264.53 C 67.82 267.15 72.88 268.67 78.92 268.85 Z M 33.6 280.49 L 33.6 274.66 L 39.17 274.66 L 39.17 221.75 L 33.6 221.75 L 33.6 216.16 L 80.5 189.37 L 127.4 216.16 L 127.4 221.75 L 121.8 221.75 L 121.8 274.66 L 127.4 274.66 L 127.4 280.49 Z" fill="#ffffff" stroke="none" pointer-events="all"/><path d="M 49.24 303.26 L 41.49 303.23 C 30.98 303.23 21.31 294.45 21.31 283.2 L 21.31 278.08 C 21.31 286.74 28.96 297.67 41.73 297.67 L 49.24 297.67 Z M 58.17 303.23 L 58.17 297.67 L 62.63 297.7 L 62.63 303.23 Z M 71.57 303.23 L 71.57 297.67 L 76.03 297.67 L 76.03 303.26 Z M 84.97 303.26 L 84.97 297.67 L 89.43 297.67 L 89.43 303.23 Z M 98.37 303.23 L 98.37 297.67 L 102.83 297.67 L 102.83 303.23 Z M 111.76 303.23 L 111.76 297.67 L 119.8 297.67 C 130.25 297.67 139.66 288.53 139.66 277.9 L 139.66 283.17 C 139.66 293.38 131.09 303.26 119.39 303.26 Z" fill-opacity="0.3" fill="#000000" stroke="none" pointer-events="all"/><path d="M 111.76 159 L 102.83 159 L 102.83 144.23 L 98.37 144.23 L 98.37 159 L 89.43 159 L 89.43 144.23 L 84.97 144.26 L 84.97 159 L 76.03 158.97 L 76.03 144.26 L 71.57 144.23 L 71.57 158.97 L 62.63 159 L 62.63 144.23 L 58.17 144.23 L 58.17 159 L 49.24 159 L 49.24 144.26 L 41.49 144.23 C 30.98 144.23 21.31 135.48 21.31 124.2 L 21.31 110.74 L 1 110.74 L 1 101.81 L 21.31 101.81 L 21.31 97.35 L 1 97.35 L 1 88.45 L 21.31 88.45 L 21.31 83.95 L 1 83.95 L 1 75.02 L 21.31 75.02 L 21.31 70.55 L 1 70.55 L 1 61.62 L 21.31 61.62 L 21.31 57.16 L 1 57.16 L 1 48.23 L 21.31 48.23 L 21.31 40.28 C 21.31 30.45 29.67 20.33 41.55 20.33 L 49.24 20.33 L 49.24 0 L 58.17 0.03 L 58.17 20.33 L 62.63 20.33 L 62.63 0 L 71.57 0.03 L 71.57 20.33 L 76.03 20.33 L 76.03 0.03 L 84.97 0 L 84.97 20.33 L 89.43 20.33 L 89.43 0 L 98.37 0.03 L 98.37 20.33 L 102.83 20.33 L 102.83 0 L 111.76 0.03 L 111.76 20.33 L 119.59 20.33 C 129.72 20.33 139.66 28.76 139.66 40.67 L 139.66 48.23 L 160 48.23 L 160 57.16 L 139.66 57.16 L 139.66 61.62 L 160 61.62 L 160 70.55 L 139.66 70.55 L 139.66 75.02 L 160 75.05 L 160 83.95 L 139.66 83.95 L 139.66 88.45 L 160 88.45 L 160 97.35 L 139.66 97.35 L 139.66 101.81 L 160 101.81 L 160 110.74 L 139.66 110.74 L 139.66 124.17 C 139.66 134.35 131.09 144.26 119.39 144.26 L 111.76 144.23 Z" fill="#5294cf" stroke="none" pointer-events="all"/><path d="M 78.92 75.02 C 76.75 74.39 74.54 73.62 73.5 72.61 C 72.34 71.6 71.84 69.54 73.41 67.43 C 74.96 65.67 77.46 65.43 78.92 65.4 Z M 82.49 99.37 L 82.49 88.62 C 84.28 89.19 86.1 89.82 87.59 90.77 C 89.05 91.81 90.09 93.12 89.46 95.56 C 88.66 98 85.83 99.1 82.49 99.37 Z M 78.92 116.55 L 82.49 116.55 L 82.49 109.85 C 87.05 109.67 91.34 108.81 94.76 107.05 C 99.41 104.67 101.64 101.43 102.71 97.94 C 103.78 94.58 104.11 89.07 101.49 85.17 C 97.65 79.01 87.85 76.9 82.49 75.67 L 82.49 65.64 C 85.12 66.39 88.06 67.96 87.85 72.1 L 101.7 72.1 C 101.76 66.18 99.17 61.5 94.73 58.53 C 90.68 55.88 86.48 55.04 82.49 54.69 L 82.49 47.54 L 78.92 47.54 L 78.92 54.27 C 74.54 54.51 70.23 55.37 66.12 57.72 C 61.27 60.64 58.85 64.81 58.62 70.29 C 58.41 76.57 61.53 80.35 65.67 82.76 C 69.81 85.11 74.4 86.27 78.92 87.52 L 78.92 99.13 C 73.56 98.66 71.09 95.83 70.88 91.1 L 57.04 91.1 C 57.1 97.32 59.51 102.29 63.97 105.53 C 67.82 108.15 72.88 109.67 78.92 109.85 Z M 33.6 121.49 L 33.6 115.66 L 39.17 115.66 L 39.17 62.75 L 33.6 62.75 L 33.6 57.16 L 80.5 30.37 L 127.4 57.16 L 127.4 62.75 L 121.8 62.75 L 121.8 115.66 L 127.4 115.66 L 127.4 121.49 Z" fill="#ffffff" stroke="none" pointer-events="all"/><path d="M 49.24 144.26 L 41.49 144.23 C 30.98 144.23 21.31 135.45 21.31 124.2 L 21.31 119.08 C 21.31 127.74 28.96 138.67 41.73 138.67 L 49.24 138.67 Z M 58.17 144.23 L 58.17 138.67 L 62.63 138.7 L 62.63 144.23 Z M 71.57 144.23 L 71.57 138.67 L 76.03 138.67 L 76.03 144.26 Z M 84.97 144.26 L 84.97 138.67 L 89.43 138.67 L 89.43 144.23 Z M 98.37 144.23 L 98.37 138.67 L 102.83 138.67 L 102.83 144.23 Z M 111.76 144.23 L 111.76 138.67 L 119.8 138.67 C 130.25 138.67 139.66 129.53 139.66 118.9 L 139.66 124.17 C 139.66 134.38 131.09 144.26 119.39 144.26 Z" fill-opacity="0.3" fill="#000000" stroke="none" pointer-events="all"/><rect x="220" y="260" width="74" height="196" fill="none" stroke="none" pointer-events="all"/><ellipse cx="256.01" cy="276.18" rx="16.223535733476627" ry="16.178029536718594" fill="#ffffff" stroke="none" pointer-events="all"/><path d="M 236.84 447.04 C 236.84 451.98 240.92 456 245.93 456 C 250.96 456 255.03 452 255.03 447.04 L 255.03 371.92 L 259.09 371.92 L 259.07 447.04 C 259.07 451.98 263.14 456 268.15 456 C 273.16 456 277.24 452 277.24 447.04 L 277.28 317.52 L 281.28 317.52 L 281.28 365.26 C 281.28 374.85 294 374.85 293.96 365.26 L 293.96 316.5 C 293.96 305.9 287.64 295.51 275.03 295.51 L 238.67 295.47 C 227.18 295.47 220 304.69 220 316.21 L 220 365.26 C 220 374.79 232.78 374.79 232.78 365.26 L 232.78 317.52 L 236.86 317.52 L 236.84 447.04 Z" fill="#ffffff" stroke="none" pointer-events="all"/><rect x="330" y="260" width="74" height="196" fill="none" stroke="none" pointer-events="all"/><ellipse cx="366.01" cy="276.18" rx="16.223535733476627" ry="16.178029536718594" fill="#ffffff" stroke="none" pointer-events="all"/><path d="M 346.84 447.04 C 346.84 451.98 350.92 456 355.93 456 C 360.96 456 365.03 452 365.03 447.04 L 365.03 371.92 L 369.09 371.92 L 369.07 447.04 C 369.07 451.98 373.14 456 378.15 456 C 383.16 456 387.24 452 387.24 447.04 L 387.28 317.52 L 391.28 317.52 L 391.28 365.26 C 391.28 374.85 404 374.85 403.96 365.26 L 403.96 316.5 C 403.96 305.9 397.64 295.51 385.03 295.51 L 348.67 295.47 C 337.18 295.47 330 304.69 330 316.21 L 330 365.26 C 330 374.79 342.78 374.79 342.78 365.26 L 342.78 317.52 L 346.86 317.52 L 346.84 447.04 Z" fill="#ffffff" stroke="none" pointer-events="all"/><rect x="440" y="260" width="74" height="196" fill="none" stroke="none" pointer-events="all"/><ellipse cx="476.01" cy="276.18" rx="16.223535733476627" ry="16.178029536718594" fill="#ffffff" stroke="none" pointer-events="all"/><path d="M 456.84 447.04 C 456.84 451.98 460.92 456 465.93 456 C 470.96 456 475.03 452 475.03 447.04 L 475.03 371.92 L 479.09 371.92 L 479.07 447.04 C 479.07 451.98 483.14 456 488.15 456 C 493.16 456 497.24 452 497.24 447.04 L 497.28 317.52 L 501.28 317.52 L 501.28 365.26 C 501.28 374.85 514 374.85 513.96 365.26 L 513.96 316.5 C 513.96 305.9 507.64 295.51 495.03 295.51 L 458.67 295.47 C 447.18 295.47 440 304.69 440 316.21 L 440 365.26 C 440 374.79 452.78 374.79 452.78 365.26 L 452.78 317.52 L 456.86 317.52 L 456.84 447.04 Z" fill="#ffffff" stroke="none" pointer-events="all"/><rect x="540" y="260" width="74" height="196" fill="none" stroke="none" pointer-events="all"/><ellipse cx="576.01" cy="276.18" rx="16.223535733476627" ry="16.178029536718594" fill="#ffffff" stroke="none" pointer-events="all"/><path d="M 556.84 447.04 C 556.84 451.98 560.92 456 565.93 456 C 570.96 456 575.03 452 575.03 447.04 L 575.03 371.92 L 579.09 371.92 L 579.07 447.04 C 579.07 451.98 583.14 456 588.15 456 C 593.16 456 597.24 452 597.24 447.04 L 597.28 317.52 L 601.28 317.52 L 601.28 365.26 C 601.28 374.85 614 374.85 613.96 365.26 L 613.96 316.5 C 613.96 305.9 607.64 295.51 595.03 295.51 L 558.67 295.47 C 547.18 295.47 540 304.69 540 316.21 L 540 365.26 C 540 374.79 552.78 374.79 552.78 365.26 L 552.78 317.52 L 556.86 317.52 L 556.84 447.04 Z" fill="#ffffff" stroke="none" pointer-events="all"/><rect x="220" y="480" width="74" height="196" fill="none" stroke="none" pointer-events="all"/><ellipse cx="256.01" cy="496.18" rx="16.223535733476627" ry="16.178029536718594" fill="#ffffff" stroke="none" pointer-events="all"/><path d="M 236.84 667.04 C 236.84 671.98 240.92 676 245.93 676 C 250.96 676 255.03 672 255.03 667.04 L 255.03 591.92 L 259.09 591.92 L 259.07 667.04 C 259.07 671.98 263.14 676 268.15 676 C 273.16 676 277.24 672 277.24 667.04 L 277.28 537.52 L 281.28 537.52 L 281.28 585.26 C 281.28 594.85 294 594.85 293.96 585.26 L 293.96 536.5 C 293.96 525.9 287.64 515.51 275.03 515.51 L 238.67 515.47 C 227.18 515.47 220 524.69 220 536.21 L 220 585.26 C 220 594.79 232.78 594.79 232.78 585.26 L 232.78 537.52 L 236.86 537.52 L 236.84 667.04 Z" fill="#ffffff" stroke="none" pointer-events="all"/><rect x="330" y="480" width="74" height="196" fill="none" stroke="none" pointer-events="all"/><ellipse cx="366.01" cy="496.18" rx="16.223535733476627" ry="16.178029536718594" fill="#ffffff" stroke="none" pointer-events="all"/><path d="M 346.84 667.04 C 346.84 671.98 350.92 676 355.93 676 C 360.96 676 365.03 672 365.03 667.04 L 365.03 591.92 L 369.09 591.92 L 369.07 667.04 C 369.07 671.98 373.14 676 378.15 676 C 383.16 676 387.24 672 387.24 667.04 L 387.28 537.52 L 391.28 537.52 L 391.28 585.26 C 391.28 594.85 404 594.85 403.96 585.26 L 403.96 536.5 C 403.96 525.9 397.64 515.51 385.03 515.51 L 348.67 515.47 C 337.18 515.47 330 524.69 330 536.21 L 330 585.26 C 330 594.79 342.78 594.79 342.78 585.26 L 342.78 537.52 L 346.86 537.52 L 346.84 667.04 Z" fill="#ffffff" stroke="none" pointer-events="all"/><rect x="440" y="480" width="74" height="196" fill="none" stroke="none" pointer-events="all"/><ellipse cx="476.01" cy="496.18" rx="16.223535733476627" ry="16.178029536718594" fill="#ffffff" stroke="none" pointer-events="all"/><path d="M 456.84 667.04 C 456.84 671.98 460.92 676 465.93 676 C 470.96 676 475.03 672 475.03 667.04 L 475.03 591.92 L 479.09 591.92 L 479.07 667.04 C 479.07 671.98 483.14 676 488.15 676 C 493.16 676 497.24 672 497.24 667.04 L 497.28 537.52 L 501.28 537.52 L 501.28 585.26 C 501.28 594.85 514 594.85 513.96 585.26 L 513.96 536.5 C 513.96 525.9 507.64 515.51 495.03 515.51 L 458.67 515.47 C 447.18 515.47 440 524.69 440 536.21 L 440 585.26 C 440 594.79 452.78 594.79 452.78 585.26 L 452.78 537.52 L 456.86 537.52 L 456.84 667.04 Z" fill="#ffffff" stroke="none" pointer-events="all"/><rect x="540" y="480" width="74" height="196" fill="none" stroke="none" pointer-events="all"/><ellipse cx="576.01" cy="496.18" rx="16.223535733476627" ry="16.178029536718594" fill="#ffffff" stroke="none" pointer-events="all"/><path d="M 556.84 667.04 C 556.84 671.98 560.92 676 565.93 676 C 570.96 676 575.03 672 575.03 667.04 L 575.03 591.92 L 579.09 591.92 L 579.07 667.04 C 579.07 671.98 583.14 676 588.15 676 C 593.16 676 597.24 672 597.24 667.04 L 597.28 537.52 L 601.28 537.52 L 601.28 585.26 C 601.28 594.85 614 594.85 613.96 585.26 L 613.96 536.5 C 613.96 525.9 607.64 515.51 595.03 515.51 L 558.67 515.47 C 547.18 515.47 540 524.69 540 536.21 L 540 585.26 C 540 594.79 552.78 594.79 552.78 585.26 L 552.78 537.52 L 556.86 537.52 L 556.84 667.04 Z" fill="#ffffff" stroke="none" pointer-events="all"/><path d="M 660.11 614.14 C 660.22 611.95 661.99 610.23 664.14 610.23 L 755.87 610.23 C 758.02 610.23 759.79 611.95 759.9 614.14 L 760 637.75 C 760 638.86 759.56 639.92 758.78 640.69 C 758.01 641.47 756.96 641.89 755.87 641.86 L 664.14 641.86 C 663.07 641.86 662.05 641.43 661.29 640.66 C 660.54 639.89 660.11 638.84 660.11 637.75 Z M 672.19 634.36 C 672.19 632.38 670.62 630.77 668.67 630.77 C 666.72 630.77 665.15 632.38 665.15 634.36 C 665.15 636.35 666.72 637.96 668.67 637.96 C 670.62 637.96 672.19 636.35 672.19 634.36 Z M 732.61 634.06 C 732 634.06 731.5 634.56 731.5 635.18 C 731.5 635.81 732 636.31 732.61 636.31 L 752.75 636.31 C 753.36 636.31 753.86 635.81 753.86 635.18 C 753.86 634.56 753.36 634.06 752.75 634.06 Z M 732.61 630.15 C 732 630.15 731.5 630.66 731.5 631.28 C 731.5 631.91 732 632.41 732.61 632.41 L 752.75 632.41 C 753.36 632.41 753.86 631.91 753.86 631.28 C 753.86 630.66 753.36 630.15 752.75 630.15 Z M 732.61 626.15 C 732 626.15 731.5 626.65 731.5 627.28 C 731.5 627.9 732 628.41 732.61 628.41 L 752.75 628.41 C 753.36 628.41 753.86 627.9 753.86 627.28 C 753.86 626.65 753.36 626.15 752.75 626.15 Z M 660 579.9 C 660.11 577.71 661.88 576 664.03 576 L 755.76 576 C 757.91 576 759.68 577.71 759.79 579.9 L 759.89 603.52 C 759.89 604.63 759.45 605.69 758.67 606.46 C 757.9 607.23 756.85 607.65 755.76 607.63 L 664.03 607.63 C 661.8 607.63 660 605.79 660 603.52 Z M 672.08 600.13 C 672.08 598.85 671.41 597.66 670.32 597.02 C 669.23 596.38 667.89 596.38 666.8 597.02 C 665.71 597.66 665.03 598.85 665.03 600.13 C 665.03 601.41 665.71 602.6 666.8 603.24 C 667.89 603.88 669.23 603.88 670.32 603.24 C 671.41 602.6 672.08 601.41 672.08 600.13 Z M 732.5 599.82 C 731.89 599.82 731.39 600.33 731.39 600.95 C 731.39 601.58 731.89 602.08 732.5 602.08 L 752.64 602.08 C 753.25 602.08 753.75 601.58 753.75 600.95 C 753.75 600.33 753.25 599.82 752.64 599.82 Z M 732.5 595.92 C 731.89 595.92 731.39 596.43 731.39 597.05 C 731.39 597.67 731.89 598.18 732.5 598.18 L 752.64 598.18 C 753.25 598.18 753.75 597.67 753.75 597.05 C 753.75 596.43 753.25 595.92 752.64 595.92 Z M 732.5 591.92 C 731.89 591.92 731.39 592.42 731.39 593.04 C 731.39 593.67 731.89 594.17 732.5 594.17 L 752.64 594.17 C 753.25 594.17 753.75 593.67 753.75 593.04 C 753.75 592.42 753.25 591.92 752.64 591.92 Z M 660.11 648.25 C 660.22 646.06 661.99 644.34 664.14 644.34 L 755.87 644.34 C 758.02 644.34 759.79 646.06 759.9 648.25 L 760 671.86 C 760 672.97 759.56 674.03 758.78 674.8 C 758.01 675.58 756.96 676 755.87 675.97 L 664.14 675.97 C 663.07 675.97 662.05 675.54 661.29 674.77 C 660.54 674 660.11 672.95 660.11 671.86 Z M 672.19 668.47 C 672.19 666.49 670.62 664.88 668.67 664.88 C 666.72 664.88 665.15 666.49 665.15 668.47 C 665.15 670.46 666.72 672.07 668.67 672.07 C 670.62 672.07 672.19 670.46 672.19 668.47 Z M 732.61 668.17 C 732 668.17 731.5 668.67 731.5 669.29 C 731.5 669.92 732 670.42 732.61 670.42 L 752.75 670.42 C 753.36 670.42 753.86 669.92 753.86 669.29 C 753.86 668.67 753.36 668.17 752.75 668.17 Z M 732.61 664.26 C 732 664.26 731.5 664.77 731.5 665.39 C 731.5 666.02 732 666.52 732.61 666.52 L 752.75 666.52 C 753.36 666.52 753.86 666.02 753.86 665.39 C 753.86 664.77 753.36 664.26 752.75 664.26 Z M 732.61 660.26 C 732 660.26 731.5 660.76 731.5 661.39 C 731.5 662.01 732 662.52 732.61 662.52 L 752.75 662.52 C 753.36 662.52 753.86 662.01 753.86 661.39 C 753.86 660.76 753.36 660.26 752.75 660.26 Z" fill="#00bef2" stroke="none" pointer-events="all"/><path d="M 660.11 338.14 C 660.22 335.95 661.99 334.23 664.14 334.23 L 755.87 334.23 C 758.02 334.23 759.79 335.95 759.9 338.14 L 760 361.75 C 760 362.86 759.56 363.92 758.78 364.69 C 758.01 365.47 756.96 365.89 755.87 365.86 L 664.14 365.86 C 663.07 365.86 662.05 365.43 661.29 364.66 C 660.54 363.89 660.11 362.84 660.11 361.75 Z M 672.19 358.36 C 672.19 356.38 670.62 354.77 668.67 354.77 C 666.72 354.77 665.15 356.38 665.15 358.36 C 665.15 360.35 666.72 361.96 668.67 361.96 C 670.62 361.96 672.19 360.35 672.19 358.36 Z M 732.61 358.06 C 732 358.06 731.5 358.56 731.5 359.18 C 731.5 359.81 732 360.31 732.61 360.31 L 752.75 360.31 C 753.36 360.31 753.86 359.81 753.86 359.18 C 753.86 358.56 753.36 358.06 752.75 358.06 Z M 732.61 354.15 C 732 354.15 731.5 354.66 731.5 355.28 C 731.5 355.91 732 356.41 732.61 356.41 L 752.75 356.41 C 753.36 356.41 753.86 355.91 753.86 355.28 C 753.86 354.66 753.36 354.15 752.75 354.15 Z M 732.61 350.15 C 732 350.15 731.5 350.65 731.5 351.28 C 731.5 351.9 732 352.41 732.61 352.41 L 752.75 352.41 C 753.36 352.41 753.86 351.9 753.86 351.28 C 753.86 350.65 753.36 350.15 752.75 350.15 Z M 660 303.9 C 660.11 301.71 661.88 300 664.03 300 L 755.76 300 C 757.91 300 759.68 301.71 759.79 303.9 L 759.89 327.52 C 759.89 328.63 759.45 329.69 758.67 330.46 C 757.9 331.23 756.85 331.65 755.76 331.63 L 664.03 331.63 C 661.8 331.63 660 329.79 660 327.52 Z M 672.08 324.13 C 672.08 322.85 671.41 321.66 670.32 321.02 C 669.23 320.38 667.89 320.38 666.8 321.02 C 665.71 321.66 665.03 322.85 665.03 324.13 C 665.03 325.41 665.71 326.6 666.8 327.24 C 667.89 327.88 669.23 327.88 670.32 327.24 C 671.41 326.6 672.08 325.41 672.08 324.13 Z M 732.5 323.82 C 731.89 323.82 731.39 324.33 731.39 324.95 C 731.39 325.58 731.89 326.08 732.5 326.08 L 752.64 326.08 C 753.25 326.08 753.75 325.58 753.75 324.95 C 753.75 324.33 753.25 323.82 752.64 323.82 Z M 732.5 319.92 C 731.89 319.92 731.39 320.43 731.39 321.05 C 731.39 321.67 731.89 322.18 732.5 322.18 L 752.64 322.18 C 753.25 322.18 753.75 321.67 753.75 321.05 C 753.75 320.43 753.25 319.92 752.64 319.92 Z M 732.5 315.92 C 731.89 315.92 731.39 316.42 731.39 317.04 C 731.39 317.67 731.89 318.17 732.5 318.17 L 752.64 318.17 C 753.25 318.17 753.75 317.67 753.75 317.04 C 753.75 316.42 753.25 315.92 752.64 315.92 Z M 660.11 372.25 C 660.22 370.06 661.99 368.34 664.14 368.34 L 755.87 368.34 C 758.02 368.34 759.79 370.06 759.9 372.25 L 760 395.86 C 760 396.97 759.56 398.03 758.78 398.8 C 758.01 399.58 756.96 400 755.87 399.97 L 664.14 399.97 C 663.07 399.97 662.05 399.54 661.29 398.77 C 660.54 398 660.11 396.95 660.11 395.86 Z M 672.19 392.47 C 672.19 390.49 670.62 388.88 668.67 388.88 C 666.72 388.88 665.15 390.49 665.15 392.47 C 665.15 394.46 666.72 396.07 668.67 396.07 C 670.62 396.07 672.19 394.46 672.19 392.47 Z M 732.61 392.17 C 732 392.17 731.5 392.67 731.5 393.29 C 731.5 393.92 732 394.42 732.61 394.42 L 752.75 394.42 C 753.36 394.42 753.86 393.92 753.86 393.29 C 753.86 392.67 753.36 392.17 752.75 392.17 Z M 732.61 388.26 C 732 388.26 731.5 388.77 731.5 389.39 C 731.5 390.02 732 390.52 732.61 390.52 L 752.75 390.52 C 753.36 390.52 753.86 390.02 753.86 389.39 C 753.86 388.77 753.36 388.26 752.75 388.26 Z M 732.61 384.26 C 732 384.26 731.5 384.76 731.5 385.39 C 731.5 386.01 732 386.52 732.61 386.52 L 752.75 386.52 C 753.36 386.52 753.86 386.01 753.86 385.39 C 753.86 384.76 753.36 384.26 752.75 384.26 Z" fill="#00bef2" stroke="none" pointer-events="all"/><path d="M 660.11 478.14 C 660.22 475.95 661.99 474.23 664.14 474.23 L 755.87 474.23 C 758.02 474.23 759.79 475.95 759.9 478.14 L 760 501.75 C 760 502.86 759.56 503.92 758.78 504.69 C 758.01 505.47 756.96 505.89 755.87 505.86 L 664.14 505.86 C 663.07 505.86 662.05 505.43 661.29 504.66 C 660.54 503.89 660.11 502.84 660.11 501.75 Z M 672.19 498.36 C 672.19 496.38 670.62 494.77 668.67 494.77 C 666.72 494.77 665.15 496.38 665.15 498.36 C 665.15 500.35 666.72 501.96 668.67 501.96 C 670.62 501.96 672.19 500.35 672.19 498.36 Z M 732.61 498.06 C 732 498.06 731.5 498.56 731.5 499.18 C 731.5 499.81 732 500.31 732.61 500.31 L 752.75 500.31 C 753.36 500.31 753.86 499.81 753.86 499.18 C 753.86 498.56 753.36 498.06 752.75 498.06 Z M 732.61 494.15 C 732 494.15 731.5 494.66 731.5 495.28 C 731.5 495.91 732 496.41 732.61 496.41 L 752.75 496.41 C 753.36 496.41 753.86 495.91 753.86 495.28 C 753.86 494.66 753.36 494.15 752.75 494.15 Z M 732.61 490.15 C 732 490.15 731.5 490.65 731.5 491.28 C 731.5 491.9 732 492.41 732.61 492.41 L 752.75 492.41 C 753.36 492.41 753.86 491.9 753.86 491.28 C 753.86 490.65 753.36 490.15 752.75 490.15 Z M 660 443.9 C 660.11 441.71 661.88 440 664.03 440 L 755.76 440 C 757.91 440 759.68 441.71 759.79 443.9 L 759.89 467.52 C 759.89 468.63 759.45 469.69 758.67 470.46 C 757.9 471.23 756.85 471.65 755.76 471.63 L 664.03 471.63 C 661.8 471.63 660 469.79 660 467.52 Z M 672.08 464.13 C 672.08 462.85 671.41 461.66 670.32 461.02 C 669.23 460.38 667.89 460.38 666.8 461.02 C 665.71 461.66 665.03 462.85 665.03 464.13 C 665.03 465.41 665.71 466.6 666.8 467.24 C 667.89 467.88 669.23 467.88 670.32 467.24 C 671.41 466.6 672.08 465.41 672.08 464.13 Z M 732.5 463.82 C 731.89 463.82 731.39 464.33 731.39 464.95 C 731.39 465.58 731.89 466.08 732.5 466.08 L 752.64 466.08 C 753.25 466.08 753.75 465.58 753.75 464.95 C 753.75 464.33 753.25 463.82 752.64 463.82 Z M 732.5 459.92 C 731.89 459.92 731.39 460.43 731.39 461.05 C 731.39 461.67 731.89 462.18 732.5 462.18 L 752.64 462.18 C 753.25 462.18 753.75 461.67 753.75 461.05 C 753.75 460.43 753.25 459.92 752.64 459.92 Z M 732.5 455.92 C 731.89 455.92 731.39 456.42 731.39 457.04 C 731.39 457.67 731.89 458.17 732.5 458.17 L 752.64 458.17 C 753.25 458.17 753.75 457.67 753.75 457.04 C 753.75 456.42 753.25 455.92 752.64 455.92 Z M 660.11 512.25 C 660.22 510.06 661.99 508.34 664.14 508.34 L 755.87 508.34 C 758.02 508.34 759.79 510.06 759.9 512.25 L 760 535.86 C 760 536.97 759.56 538.03 758.78 538.8 C 758.01 539.58 756.96 540 755.87 539.97 L 664.14 539.97 C 663.07 539.97 662.05 539.54 661.29 538.77 C 660.54 538 660.11 536.95 660.11 535.86 Z M 672.19 532.47 C 672.19 530.49 670.62 528.88 668.67 528.88 C 666.72 528.88 665.15 530.49 665.15 532.47 C 665.15 534.46 666.72 536.07 668.67 536.07 C 670.62 536.07 672.19 534.46 672.19 532.47 Z M 732.61 532.17 C 732 532.17 731.5 532.67 731.5 533.29 C 731.5 533.92 732 534.42 732.61 534.42 L 752.75 534.42 C 753.36 534.42 753.86 533.92 753.86 533.29 C 753.86 532.67 753.36 532.17 752.75 532.17 Z M 732.61 528.26 C 732 528.26 731.5 528.77 731.5 529.39 C 731.5 530.02 732 530.52 732.61 530.52 L 752.75 530.52 C 753.36 530.52 753.86 530.02 753.86 529.39 C 753.86 528.77 753.36 528.26 752.75 528.26 Z M 732.61 524.26 C 732 524.26 731.5 524.76 731.5 525.39 C 731.5 526.01 732 526.52 732.61 526.52 L 752.75 526.52 C 753.36 526.52 753.86 526.01 753.86 525.39 C 753.86 524.76 753.36 524.26 752.75 524.26 Z" fill="#00bef2" stroke="none" pointer-events="all"/></g></svg>